<svg width="3560" height="2242" xmlns="http://www.w3.org/2000/svg" xmlns:xlink="http://www.w3.org/1999/xlink" xml:space="preserve" overflow="hidden"><defs><clipPath id="clip0"><rect x="378" y="6678" width="3560" height="2242"/></clipPath></defs><g clip-path="url(#clip0)" transform="translate(-378 -6678)"><rect x="379" y="6679" width="3557" height="2239" fill="#FFFFFF"/><g><path d="M671.5 8390.78 3544.5 8390.78M671.5 8088.77 3544.5 8088.77M671.5 7786.76 3544.5 7786.76M671.5 7485.75 3544.5 7485.75M671.5 7183.74 3544.5 7183.74M671.5 6882.5 3544.5 6882.5" stroke="#D9D9D9" stroke-width="3.4375" stroke-linejoin="round" stroke-miterlimit="10" fill="none"/></g><g><path d="M0 0 0.000360892 1810" stroke="#D1D1D1" stroke-width="3.4375" stroke-linejoin="round" stroke-miterlimit="10" fill="none" fill-rule="evenodd" transform="matrix(1 0 0 -1 671.5 8692.5)"/></g><g><path d="M671.522 8692.5 681.5 8692.5M671.522 8631.78 681.5 8631.78M671.522 8571.78 681.5 8571.78M671.522 8511.78 681.5 8511.78M671.522 8450.78 681.5 8450.78M671.522 8390.78 681.5 8390.78M671.522 8330.77 681.5 8330.77M671.522 8269.77 681.5 8269.77M671.522 8209.77 681.5 8209.77M671.522 8148.77 681.5 8148.77M671.522 8088.77 681.5 8088.77M671.522 8028.76 681.5 8028.76M671.522 7967.76 681.5 7967.76M671.522 7907.76 681.5 7907.76M671.522 7847.76 681.5 7847.76M671.522 7786.76 681.5 7786.76M671.522 7726.75 681.5 7726.75M671.522 7666.75 681.5 7666.75M671.522 7605.75 681.5 7605.75M671.522 7545.75 681.5 7545.75M671.522 7485.75 681.5 7485.75M671.522 7424.74 681.5 7424.74M671.522 7364.74 681.5 7364.74M671.522 7304.74 681.5 7304.74M671.522 7243.74 681.5 7243.74M671.522 7183.74 681.5 7183.74M671.522 7123.73 681.5 7123.73M671.522 7062.73 681.5 7062.73M671.522 7002.73 681.5 7002.73M671.522 6942.73 681.5 6942.73M671.522 6882.5 681.5 6882.5M658.5 8692.5 671.522 8692.5M658.5 8390.78 671.522 8390.78M658.5 8088.77 671.522 8088.77M658.5 7786.76 671.522 7786.76M658.5 7485.75 671.522 7485.75M658.5 7183.74 671.522 7183.74M658.5 6882.5 671.522 6882.5" stroke="#D1D1D1" stroke-width="3.4375" stroke-linejoin="round" stroke-miterlimit="10" fill="none"/></g><g><path d="M671.5 8692.5 3544.5 8692.5" stroke="#D9D9D9" stroke-width="3.4375" stroke-linejoin="round" stroke-miterlimit="10" fill="none" fill-rule="evenodd"/></g><g><path d="M830.5 7528.75 1150.54 7375.5 1469.55 7443.74 1788.56 7738.75 2107.57 7829.76 2427.58 7953.76 2746.59 8032.76 3065.6 8098.77 3384.5 8173.5" stroke="#747474" stroke-width="6.875" stroke-linecap="round" stroke-linejoin="round" stroke-miterlimit="10" fill="none"/></g><g><path d="M1150.5 7032.73 1469.55 6918.5 1788.56 7567.75 2107.57 7665.75 2427.58 7843.76 2746.59 7927.76 3065.6 8015.76 3384.5 8027.5" stroke="#747474" stroke-width="6.875" stroke-linecap="round" stroke-linejoin="round" stroke-miterlimit="10" stroke-dasharray="0 13.75" fill="none"/></g><g><path d="M1788.5 7392.74 2107.57 7282.5 2427.58 7748.75 2746.59 7839.76 3065.6 8023.76 3384.5 8034.5" stroke="#747474" stroke-width="6.875" stroke-linecap="round" stroke-linejoin="round" stroke-miterlimit="10" stroke-dasharray="20.625 27.5" fill="none"/></g><g><path d="M2427.5 7689.75 2746.59 7365.5 3065.6 7923.76 3384.5 8002.5" stroke="#747474" stroke-width="6.875" stroke-linecap="round" stroke-linejoin="round" stroke-miterlimit="10" stroke-dasharray="20.625 27.5 0 27.5" fill="none"/></g><g><path d="M3065.5 7695.5 3384.5 7681.5" stroke="#747474" stroke-width="6.875" stroke-linecap="round" stroke-linejoin="round" stroke-miterlimit="10" stroke-dasharray="48.125 27.5" fill="none"/></g><g><path d="M830.5 8040.76 1150.54 7466.5 1469.55 7885.76 1788.56 7985.76 2107.57 8139.77 2427.58 8147.77 2746.59 8299.77 3065.6 8295.77 3384.5 8369.5" stroke="#4EA72E" stroke-width="6.875" stroke-linecap="round" stroke-linejoin="round" stroke-miterlimit="10" fill="none"/></g><g><path d="M1150.5 7871.76 1469.55 7581.5 1788.56 7771.76 2107.57 8086.77 2427.58 8074.77 2746.59 8213.77 3065.6 8260.77 3384.5 8318.5" stroke="#4EA72E" stroke-width="6.875" stroke-linecap="round" stroke-linejoin="round" stroke-miterlimit="10" stroke-dasharray="0 13.75" fill="none"/></g><g><path d="M1788.5 8048.76 2107.57 7912.5 2427.58 8051.76 2746.59 8204.77 3065.6 8217.77 3384.5 8351.5" stroke="#4EA72E" stroke-width="6.875" stroke-linecap="round" stroke-linejoin="round" stroke-miterlimit="10" stroke-dasharray="20.625 27.5" fill="none"/></g><g><path d="M2427.5 8050.5 2746.59 8090.77 3065.6 8137.77 3384.5 8177.5" stroke="#4EA72E" stroke-width="6.875" stroke-linecap="round" stroke-linejoin="round" stroke-miterlimit="10" stroke-dasharray="20.625 27.5 0 27.5" fill="none"/></g><g><path d="M3065.5 8072.5 3384.5 8171.5" stroke="#4EA72E" stroke-width="6.875" stroke-linecap="round" stroke-linejoin="round" stroke-miterlimit="10" stroke-dasharray="48.125 27.5" fill="none"/></g><g><path d="M830.5 8149.77 1150.54 7557.5 1469.55 8007.76 1788.56 8033.76 2107.57 8219.77 2427.58 8263.77 2746.59 8342.77 3065.6 8335.77 3384.5 8382.5" stroke="#A02B93" stroke-width="6.875" stroke-linecap="round" stroke-linejoin="round" stroke-miterlimit="10" fill="none"/></g><g><path d="M1150.5 8240.77 1469.55 7780.5 1788.56 7901.76 2107.57 8142.77 2427.58 8145.77 2746.59 8252.77 3065.6 8335.77 3384.5 8385.5" stroke="#A02B93" stroke-width="6.875" stroke-linecap="round" stroke-linejoin="round" stroke-miterlimit="10" stroke-dasharray="0 13.75" fill="none"/></g><g><path d="M1788.5 8290.77 2107.57 8063.5 2427.58 8073.77 2746.59 8269.77 3065.6 8279.77 3384.5 8384.5" stroke="#A02B93" stroke-width="6.875" stroke-linecap="round" stroke-linejoin="round" stroke-miterlimit="10" stroke-dasharray="20.625 27.5" fill="none"/></g><g><path d="M2427.5 8341.5 2746.59 8197.77 3065.6 8178.5 3384.5 8326.77" stroke="#A02B93" stroke-width="6.875" stroke-linecap="round" stroke-linejoin="round" stroke-miterlimit="10" stroke-dasharray="20.625 27.5 0 27.5" fill="none"/></g><g><path d="M3065.5 8377.5 3384.5 8250.5" stroke="#A02B93" stroke-width="6.875" stroke-linecap="round" stroke-linejoin="round" stroke-miterlimit="10" stroke-dasharray="48.125 27.5 0 27.5" fill="none"/></g><g><path d="M830.5 8437.78 1150.54 7631.75 1469.55 7691.75 1788.56 8579.5 2107.57 8117.77 2427.58 7531.5 2746.59 7930.76 3065.6 8428.78 3384.5 7956.76" stroke="#E97132" stroke-width="6.875" stroke-linecap="round" stroke-linejoin="round" stroke-miterlimit="10" fill="none"/></g><g><path d="M830.5 7972.5 1150.54 7818.76 1469.55 7586.5 1788.56 7748.75 2107.57 7777.76 2427.58 7613.75 2746.59 7687.75 3065.6 7677.75 3384.5 7640.75" stroke="#FF5050" stroke-width="6.875" stroke-linecap="round" stroke-linejoin="round" stroke-miterlimit="10" fill="none"/></g><g><path d="M830.5 8316.5 1150.54 7592.75 1469.55 7554.75 1788.56 7537.75 2107.57 7529.75 2427.58 7538.75 2746.59 7515.5 3065.6 7528.75 3384.5 7776.76" stroke="#0F9ED5" stroke-width="6.875" stroke-linecap="round" stroke-linejoin="round" stroke-miterlimit="10" fill="none"/></g><g><text fill="#595959" font-family="Aptos Narrow,Aptos Narrow_MSFontService,sans-serif" font-weight="400" font-stretch="semi-condensed" font-size="41" transform="matrix(1 0 0 1 528.477 8704)">0.00%</text></g><g><text fill="#595959" font-family="Aptos Narrow,Aptos Narrow_MSFontService,sans-serif" font-weight="400" font-stretch="semi-condensed" font-size="41" transform="matrix(1 0 0 1 528.477 8402)">0.20%</text></g><g><text fill="#595959" font-family="Aptos Narrow,Aptos Narrow_MSFontService,sans-serif" font-weight="400" font-stretch="semi-condensed" font-size="41" transform="matrix(1 0 0 1 528.477 8100)">0.40%</text></g><g><text fill="#595959" font-family="Aptos Narrow,Aptos Narrow_MSFontService,sans-serif" font-weight="400" font-stretch="semi-condensed" font-size="41" transform="matrix(1 0 0 1 528.477 7799)">0.60%</text></g><g><text fill="#595959" font-family="Aptos Narrow,Aptos Narrow_MSFontService,sans-serif" font-weight="400" font-stretch="semi-condensed" font-size="41" transform="matrix(1 0 0 1 528.477 7497)">0.80%</text></g><g><text fill="#595959" font-family="Aptos Narrow,Aptos Narrow_MSFontService,sans-serif" font-weight="400" font-stretch="semi-condensed" font-size="41" transform="matrix(1 0 0 1 528.477 7195)">1.00%</text></g><g><text fill="#595959" font-family="Aptos Narrow,Aptos Narrow_MSFontService,sans-serif" font-weight="400" font-stretch="semi-condensed" font-size="41" transform="matrix(1 0 0 1 528.477 6894)">1.20%</text></g><g><text fill="#595959" font-family="Aptos Narrow,Aptos Narrow_MSFontService,sans-serif" font-weight="400" font-stretch="semi-condensed" font-size="41" transform="matrix(1 0 0 1 810.08 8757)">20</text></g><g><text fill="#595959" font-family="Aptos Narrow,Aptos Narrow_MSFontService,sans-serif" font-weight="400" font-stretch="semi-condensed" font-size="41" transform="matrix(1 0 0 1 1129.32 8757)">40</text></g><g><text fill="#595959" font-family="Aptos Narrow,Aptos Narrow_MSFontService,sans-serif" font-weight="400" font-stretch="semi-condensed" font-size="41" transform="matrix(1 0 0 1 1448.56 8757)">60</text></g><g><text fill="#595959" font-family="Aptos Narrow,Aptos Narrow_MSFontService,sans-serif" font-weight="400" font-stretch="semi-condensed" font-size="41" transform="matrix(1 0 0 1 1767.8 8757)">80</text></g><g><text fill="#595959" font-family="Aptos Narrow,Aptos Narrow_MSFontService,sans-serif" font-weight="400" font-stretch="semi-condensed" font-size="41" transform="matrix(1 0 0 1 2076.59 8757)">100</text></g><g><text fill="#595959" font-family="Aptos Narrow,Aptos Narrow_MSFontService,sans-serif" font-weight="400" font-stretch="semi-condensed" font-size="41" transform="matrix(1 0 0 1 2395.84 8757)">120</text></g><g><text fill="#595959" font-family="Aptos Narrow,Aptos Narrow_MSFontService,sans-serif" font-weight="400" font-stretch="semi-condensed" font-size="41" transform="matrix(1 0 0 1 2715.08 8757)">140</text></g><g><text fill="#595959" font-family="Aptos Narrow,Aptos Narrow_MSFontService,sans-serif" font-weight="400" font-stretch="semi-condensed" font-size="41" transform="matrix(1 0 0 1 3034.32 8757)">160</text></g><g><text fill="#595959" font-family="Aptos Narrow,Aptos Narrow_MSFontService,sans-serif" font-weight="400" font-stretch="semi-condensed" font-size="41" transform="matrix(1 0 0 1 3353.56 8757)">180</text></g><g><text fill="#595959" font-family="Aptos Narrow,Aptos Narrow_MSFontService,sans-serif" font-weight="400" font-stretch="semi-condensed" font-size="64" transform="matrix(6.12323e-17 -1 1 6.12323e-17 496.394 8296)">Porcentaje de los ultimos 4s en CPU (%)</text></g><g><text fill="#595959" font-family="Aptos Narrow,Aptos Narrow_MSFontService,sans-serif" font-weight="400" font-stretch="semi-condensed" font-size="64" transform="matrix(1 0 0 1 1638.76 8842)">Tiempo desde el inicio de la iteración</text></g><g><text fill="#595959" font-family="Aptos Narrow,Aptos Narrow_MSFontService,sans-serif" font-weight="400" font-stretch="semi-condensed" font-size="92" transform="matrix(1 0 0 1 1620.26 6799)">Consumo de CPU por Réplica</text></g><g><path d="M3619.5 7217.5 3735.5 7217.5" stroke="#747474" stroke-width="6.875" stroke-linecap="round" stroke-linejoin="round" stroke-miterlimit="10" fill="none" fill-rule="evenodd"/></g><g><text fill="#595959" font-family="Aptos Narrow,Aptos Narrow_MSFontService,sans-serif" font-weight="400" font-stretch="semi-condensed" font-size="41" transform="matrix(1 0 0 1 3747.91 7229)">PNG-0-1</text></g><g><path d="M3619.5 7294.5 3735.5 7294.5" stroke="#747474" stroke-width="6.875" stroke-linecap="round" stroke-linejoin="round" stroke-miterlimit="10" stroke-dasharray="0 13.75" fill="none" fill-rule="evenodd"/></g><g><text fill="#595959" font-family="Aptos Narrow,Aptos Narrow_MSFontService,sans-serif" font-weight="400" font-stretch="semi-condensed" font-size="41" transform="matrix(1 0 0 1 3747.91 7306)">PNG-0-2</text></g><g><path d="M3619.5 7372.5 3735.5 7372.5" stroke="#747474" stroke-width="6.875" stroke-linecap="round" stroke-linejoin="round" stroke-miterlimit="10" stroke-dasharray="20.625 27.5" fill="none" fill-rule="evenodd"/></g><g><text fill="#595959" font-family="Aptos Narrow,Aptos Narrow_MSFontService,sans-serif" font-weight="400" font-stretch="semi-condensed" font-size="41" transform="matrix(1 0 0 1 3747.91 7384)">PNG-0-3</text></g><g><path d="M3619.5 7449.5 3735.5 7449.5" stroke="#747474" stroke-width="6.875" stroke-linecap="round" stroke-linejoin="round" stroke-miterlimit="10" stroke-dasharray="20.625 27.5 0 27.5" fill="none" fill-rule="evenodd"/></g><g><text fill="#595959" font-family="Aptos Narrow,Aptos Narrow_MSFontService,sans-serif" font-weight="400" font-stretch="semi-condensed" font-size="41" transform="matrix(1 0 0 1 3747.91 7461)">PNG-0-4</text></g><g><path d="M3619.5 7526.5 3735.5 7526.5" stroke="#747474" stroke-width="6.875" stroke-linecap="round" stroke-linejoin="round" stroke-miterlimit="10" stroke-dasharray="48.125 27.5" fill="none" fill-rule="evenodd"/></g><g><text fill="#595959" font-family="Aptos Narrow,Aptos Narrow_MSFontService,sans-serif" font-weight="400" font-stretch="semi-condensed" font-size="41" transform="matrix(1 0 0 1 3747.91 7538)">PNG-0-5</text></g><g><path d="M3619.5 7604.5 3735.5 7604.5" stroke="#4EA72E" stroke-width="6.875" stroke-linecap="round" stroke-linejoin="round" stroke-miterlimit="10" fill="none" fill-rule="evenodd"/></g><g><text fill="#595959" font-family="Aptos Narrow,Aptos Narrow_MSFontService,sans-serif" font-weight="400" font-stretch="semi-condensed" font-size="41" transform="matrix(1 0 0 1 3747.91 7616)">PNG-1-1</text></g><g><path d="M3619.5 7681.5 3735.5 7681.5" stroke="#4EA72E" stroke-width="6.875" stroke-linecap="round" stroke-linejoin="round" stroke-miterlimit="10" stroke-dasharray="0 13.75" fill="none" fill-rule="evenodd"/></g><g><text fill="#595959" font-family="Aptos Narrow,Aptos Narrow_MSFontService,sans-serif" font-weight="400" font-stretch="semi-condensed" font-size="41" transform="matrix(1 0 0 1 3747.91 7693)">PNG-1-2</text></g><g><path d="M3619.5 7758.5 3735.5 7758.5" stroke="#4EA72E" stroke-width="6.875" stroke-linecap="round" stroke-linejoin="round" stroke-miterlimit="10" stroke-dasharray="20.625 27.5" fill="none" fill-rule="evenodd"/></g><g><text fill="#595959" font-family="Aptos Narrow,Aptos Narrow_MSFontService,sans-serif" font-weight="400" font-stretch="semi-condensed" font-size="41" transform="matrix(1 0 0 1 3747.91 7770)">PNG-1-3</text></g><g><path d="M3619.5 7836.5 3735.5 7836.5" stroke="#4EA72E" stroke-width="6.875" stroke-linecap="round" stroke-linejoin="round" stroke-miterlimit="10" stroke-dasharray="20.625 27.5 0 27.5" fill="none" fill-rule="evenodd"/></g><g><text fill="#595959" font-family="Aptos Narrow,Aptos Narrow_MSFontService,sans-serif" font-weight="400" font-stretch="semi-condensed" font-size="41" transform="matrix(1 0 0 1 3747.91 7848)">PNG-1-4</text></g><g><path d="M3619.5 7913.5 3735.5 7913.5" stroke="#4EA72E" stroke-width="6.875" stroke-linecap="round" stroke-linejoin="round" stroke-miterlimit="10" stroke-dasharray="48.125 27.5" fill="none" fill-rule="evenodd"/></g><g><text fill="#595959" font-family="Aptos Narrow,Aptos Narrow_MSFontService,sans-serif" font-weight="400" font-stretch="semi-condensed" font-size="41" transform="matrix(1 0 0 1 3747.91 7925)">PNG-1-5</text></g><g><path d="M3619.5 7990.5 3735.5 7990.5" stroke="#A02B93" stroke-width="6.875" stroke-linecap="round" stroke-linejoin="round" stroke-miterlimit="10" fill="none" fill-rule="evenodd"/></g><g><text fill="#595959" font-family="Aptos Narrow,Aptos Narrow_MSFontService,sans-serif" font-weight="400" font-stretch="semi-condensed" font-size="41" transform="matrix(1 0 0 1 3747.91 8002)">PNG-2-1</text></g><g><path d="M3619.5 8068.5 3735.5 8068.5" stroke="#A02B93" stroke-width="6.875" stroke-linecap="round" stroke-linejoin="round" stroke-miterlimit="10" stroke-dasharray="0 13.75" fill="none" fill-rule="evenodd"/></g><g><text fill="#595959" font-family="Aptos Narrow,Aptos Narrow_MSFontService,sans-serif" font-weight="400" font-stretch="semi-condensed" font-size="41" transform="matrix(1 0 0 1 3747.91 8080)">PNG-2-2</text></g><g><path d="M3619.5 8145.5 3735.5 8145.5" stroke="#A02B93" stroke-width="6.875" stroke-linecap="round" stroke-linejoin="round" stroke-miterlimit="10" stroke-dasharray="20.625 27.5" fill="none" fill-rule="evenodd"/></g><g><text fill="#595959" font-family="Aptos Narrow,Aptos Narrow_MSFontService,sans-serif" font-weight="400" font-stretch="semi-condensed" font-size="41" transform="matrix(1 0 0 1 3747.91 8157)">PNG-2-3</text></g><g><path d="M3619.5 8222.5 3735.5 8222.5" stroke="#A02B93" stroke-width="6.875" stroke-linecap="round" stroke-linejoin="round" stroke-miterlimit="10" stroke-dasharray="20.625 27.5 0 27.5" fill="none" fill-rule="evenodd"/></g><g><text fill="#595959" font-family="Aptos Narrow,Aptos Narrow_MSFontService,sans-serif" font-weight="400" font-stretch="semi-condensed" font-size="41" transform="matrix(1 0 0 1 3747.91 8234)">PNG-2-4</text></g><g><path d="M3619.5 8300.5 3735.5 8300.5" stroke="#A02B93" stroke-width="6.875" stroke-linecap="round" stroke-linejoin="round" stroke-miterlimit="10" stroke-dasharray="48.125 27.5 0 27.5" fill="none" fill-rule="evenodd"/></g><g><text fill="#595959" font-family="Aptos Narrow,Aptos Narrow_MSFontService,sans-serif" font-weight="400" font-stretch="semi-condensed" font-size="41" transform="matrix(1 0 0 1 3747.91 8312)">PNG-2-5</text></g><g><path d="M3619.5 8377.5 3735.5 8377.5" stroke="#E97132" stroke-width="6.875" stroke-linecap="round" stroke-linejoin="round" stroke-miterlimit="10" fill="none" fill-rule="evenodd"/></g><g><text fill="#595959" font-family="Aptos Narrow,Aptos Narrow_MSFontService,sans-serif" font-weight="400" font-stretch="semi-condensed" font-size="41" transform="matrix(1 0 0 1 3747.91 8389)">PNG-3-1</text></g><g><path d="M3619.5 8454.5 3735.5 8454.5" stroke="#FF5050" stroke-width="6.875" stroke-linecap="round" stroke-linejoin="round" stroke-miterlimit="10" fill="none" fill-rule="evenodd"/></g><g><text fill="#595959" font-family="Aptos Narrow,Aptos Narrow_MSFontService,sans-serif" font-weight="400" font-stretch="semi-condensed" font-size="41" transform="matrix(1 0 0 1 3747.91 8466)">PNG-4</text></g><g><path d="M3619.5 8532.5 3735.5 8532.5" stroke="#0F9ED5" stroke-width="6.875" stroke-linecap="round" stroke-linejoin="round" stroke-miterlimit="10" fill="none" fill-rule="evenodd"/></g><g><text fill="#595959" font-family="Aptos Narrow,Aptos Narrow_MSFontService,sans-serif" font-weight="400" font-stretch="semi-condensed" font-size="41" transform="matrix(1 0 0 1 3747.91 8544)">PNG-5</text></g><rect x="379.5" y="6679.5" width="3557" height="2239" stroke="#D9D9D9" stroke-width="3.4375" stroke-linejoin="round" stroke-miterlimit="10" fill="none"/></g></svg>