<svg width="3786" height="2266" xmlns="http://www.w3.org/2000/svg" xmlns:xlink="http://www.w3.org/1999/xlink" xml:space="preserve" overflow="hidden"><defs><clipPath id="clip0"><rect x="1429" y="7475" width="3786" height="2266"/></clipPath></defs><g clip-path="url(#clip0)" transform="translate(-1429 -7475)"><rect x="1430" y="7476" width="3783" height="2263" fill="#FFFFFF"/><g><path d="M1732.5 9179.8 4821.5 9179.8M1732.5 8846.79 4821.5 8846.79M1732.5 8512.78 4821.5 8512.78M1732.5 8179.77 4821.5 8179.77M1732.5 7846.5 4821.5 7846.5" stroke="#D9D9D9" stroke-width="3.4375" stroke-linejoin="round" stroke-miterlimit="10" fill="none"/></g><g><path d="M0 0 0.000360892 1834" stroke="#7F7F7F" stroke-width="3.4375" stroke-linejoin="round" stroke-miterlimit="10" fill="none" fill-rule="evenodd" transform="matrix(1 0 0 -1 1732.5 9513.5)"/></g><g><path d="M1732.56 9513.5 1742.5 9513.5M1732.56 9446.81 1742.5 9446.81M1732.56 9379.81 1742.5 9379.81M1732.56 9313.81 1742.5 9313.81M1732.56 9246.8 1742.5 9246.8M1732.56 9179.8 1742.5 9179.8M1732.56 9113.8 1742.5 9113.8M1732.56 9046.8 1742.5 9046.8M1732.56 8979.79 1742.5 8979.79M1732.56 8912.79 1742.5 8912.79M1732.56 8846.79 1742.5 8846.79M1732.56 8779.79 1742.5 8779.79M1732.56 8712.79 1742.5 8712.79M1732.56 8646.78 1742.5 8646.78M1732.56 8579.78 1742.5 8579.78M1732.56 8512.78 1742.5 8512.78M1732.56 8446.78 1742.5 8446.78M1732.56 8379.78 1742.5 8379.78M1732.56 8312.77 1742.5 8312.77M1732.56 8246.77 1742.5 8246.77M1732.56 8179.77 1742.5 8179.77M1732.56 8112.77 1742.5 8112.77M1732.56 8046.76 1742.5 8046.76M1732.56 7979.76 1742.5 7979.76M1732.56 7912.76 1742.5 7912.76M1732.56 7846.76 1742.5 7846.76M1732.56 7779.76 1742.5 7779.76M1732.56 7712.5 1742.5 7712.5M1719.5 9513.5 1732.56 9513.5M1719.5 9179.8 1732.56 9179.8M1719.5 8846.79 1732.56 8846.79M1719.5 8512.78 1732.56 8512.78M1719.5 8179.77 1732.56 8179.77M1719.5 7846.76 1732.56 7846.76" stroke="#7F7F7F" stroke-width="3.4375" stroke-linejoin="round" stroke-miterlimit="10" fill="none"/></g><g><path d="M1732.5 9513.5 4821.5 9513.5" stroke="#7F7F7F" stroke-width="3.4375" stroke-linejoin="round" stroke-miterlimit="10" fill="none" fill-rule="evenodd"/></g><g><path d="M1904.56 9503.5 1904.56 9513.81M2247.57 9503.5 2247.57 9513.81M2590.59 9503.5 2590.59 9513.81M2933.6 9503.5 2933.6 9513.81M3276.61 9503.5 3276.61 9513.81M3620.62 9503.5 3620.62 9513.81M3963.63 9503.5 3963.63 9513.81M4306.64 9503.5 4306.64 9513.81M4649.65 9503.5 4649.65 9513.81M4821.5 9503.5 4821.5 9513.81M1732.5 9513.81 1732.5 9526.5M2075.57 9513.81 2075.57 9526.5M2418.58 9513.81 2418.58 9526.5M2762.59 9513.81 2762.59 9526.5M3105.6 9513.81 3105.6 9526.5M3448.61 9513.81 3448.61 9526.5M3791.62 9513.81 3791.62 9526.5M4134.64 9513.81 4134.64 9526.5M4477.65 9513.81 4477.65 9526.5M4821.5 9513.81 4821.5 9526.5" stroke="#7F7F7F" stroke-width="3.4375" stroke-linejoin="round" stroke-miterlimit="10" fill="none"/></g><g><path d="M1904.5 7929.76 2247.57 7906.76 2590.59 7879.5 2933.6 7926.76 3276.61 7902.76 3620.62 8114.77 3963.63 8042.76 4306.64 8210.5 4649.5 8194.77" stroke="#747474" stroke-width="6.875" stroke-linecap="round" stroke-linejoin="round" stroke-miterlimit="10" fill="none"/></g><g><path d="M2247.5 8504.5 2590.59 8189.77 2933.6 8156.77 3276.61 8122.77 3620.62 8122.77 3963.63 8096.5 4306.64 8129.77 4649.5 8099.77" stroke="#747474" stroke-width="6.875" stroke-linecap="round" stroke-linejoin="round" stroke-miterlimit="10" stroke-dasharray="0 13.75" fill="none"/></g><g><path d="M2933.5 8630.5 3276.61 8276.77 3620.62 8216.77 3963.63 8206.77 4306.64 8202.77 4649.5 8179.5" stroke="#747474" stroke-width="6.875" stroke-linecap="round" stroke-linejoin="round" stroke-miterlimit="10" stroke-dasharray="20.625 27.5" fill="none"/></g><g><path d="M3620.5 8751.5 3963.63 8282.77 4306.64 8262.77 4649.5 8236.5" stroke="#747474" stroke-width="6.875" stroke-linecap="round" stroke-linejoin="round" stroke-miterlimit="10" stroke-dasharray="48.125 27.5" fill="none"/></g><g><path d="M4306.5 8785.5 4649.5 8310.5" stroke="#747474" stroke-width="6.875" stroke-linecap="round" stroke-linejoin="round" stroke-miterlimit="10" stroke-dasharray="48.125 27.5 0 27.5" fill="none"/></g><g><path d="M1904.5 7919.76 2247.57 7902.76 2590.59 7859.5 2933.6 7862.76 3276.61 7859.5 3620.62 7916.76 3963.63 7916.76 4306.64 8002.76 4649.5 8023.5" stroke="#4EA72E" stroke-width="6.875" stroke-linecap="round" stroke-linejoin="round" stroke-miterlimit="10" fill="none"/></g><g><path d="M2247.5 8624.5 2590.59 8039.76 2933.6 7956.76 3276.61 7932.76 3620.62 7836.5 3963.63 7886.76 4306.64 7949.76 4649.5 7946.76" stroke="#4EA72E" stroke-width="6.875" stroke-linecap="round" stroke-linejoin="round" stroke-miterlimit="10" stroke-dasharray="0 13.75" fill="none"/></g><g><path d="M2933.5 8748.5 3276.61 8299.77 3620.62 8072.77 3963.63 7989.76 4306.64 7969.5 4649.5 7972.76" stroke="#4EA72E" stroke-width="6.875" stroke-linecap="round" stroke-linejoin="round" stroke-miterlimit="10" stroke-dasharray="20.625 27.5" fill="none"/></g><g><path d="M3620 8803 3963.13 8445.28 4306.14 8183.27 4650 7973" stroke="#4EA72E" stroke-width="8.02083" stroke-linecap="round" stroke-linejoin="round" stroke-miterlimit="10" stroke-dasharray="56.1458 32.0833" fill="none"/></g><g><path d="M4306.5 8810.5 4649.5 8489.5" stroke="#4EA72E" stroke-width="6.875" stroke-linecap="round" stroke-linejoin="round" stroke-miterlimit="10" stroke-dasharray="48.125 27.5 0 27.5" fill="none"/></g><g><path d="M1904.5 8006.76 2247.57 7982.76 2590.59 7966.76 2933.6 7963.5 3276.61 7976.76 3620.62 7982.76 3963.63 8002.76 4306.64 8019.76 4649.5 8026.5" stroke="#A02B93" stroke-width="6.875" stroke-linecap="round" stroke-linejoin="round" stroke-miterlimit="10" fill="none"/></g><g><path d="M2247.5 9279.5 2590.59 8029.76 2933.6 8002.76 3276.61 7986.5 3620.62 8002.76 3963.63 7999.76 4306.64 8006.76 4649.5 8026.76" stroke="#A02B93" stroke-width="6.875" stroke-linecap="round" stroke-linejoin="round" stroke-miterlimit="10" stroke-dasharray="0 13.75" fill="none"/></g><g><path d="M2933.5 9329.5 3276.61 8079.77 3620.62 8019.76 3963.63 8016.76 4306.64 8013.5 4649.5 8016.76" stroke="#A02B93" stroke-width="6.875" stroke-linecap="round" stroke-linejoin="round" stroke-miterlimit="10" stroke-dasharray="20.625 27.5" fill="none"/></g><g><path d="M3620.5 8433.5 3963.63 8268.77 4306.64 8029.5 4649.5 8046.76" stroke="#A02B93" stroke-width="6.875" stroke-linecap="round" stroke-linejoin="round" stroke-miterlimit="10" stroke-dasharray="48.125 27.5" fill="none"/></g><g><path d="M4306.5 9424.5 4649.5 8291.5" stroke="#A02B93" stroke-width="6.875" stroke-linecap="round" stroke-linejoin="round" stroke-miterlimit="10" stroke-dasharray="48.125 27.5 0 27.5" fill="none"/></g><g><path d="M1904.5 7959.5 2247.57 7956.76 2590.59 7959.5 2933.6 7959.5 3276.61 7953.5 3620.62 7956.76 3963.63 7956.76 4306.64 7956.76 4649.5 7953.5" stroke="#E97132" stroke-width="6.875" stroke-linecap="round" stroke-linejoin="round" stroke-miterlimit="10" fill="none"/></g><g><path d="M2591 9347 2934.1 9347 3277.11 9347 3620.12 9347 3963.13 9347 4306.14 9347 4650 9347" stroke="#E97132" stroke-width="8.02083" stroke-linecap="round" stroke-linejoin="round" stroke-miterlimit="10" stroke-dasharray="24.0625 32.0833" fill="none"/></g><g><path d="M3963.5 9396.5 4306.64 9396.5 4649.5 9396.5" stroke="#E97132" stroke-width="6.875" stroke-linecap="round" stroke-linejoin="round" stroke-miterlimit="10" fill="none"/></g><g><path d="M4638.5 9239.57 4660.5 9239.57 4660.5 9261.57 4638.5 9261.57Z" stroke="#E97132" stroke-width="3.4375" stroke-linejoin="round" stroke-miterlimit="10" fill="#114D68"/></g><g><path d="M1904.5 7926.5 2247.57 7912.76 2590.59 7893.5 2933.6 7893.5 3276.61 7899.76 3620.62 7893.5 3963.63 7902.76 4306.64 7896.76 4649.5 7899.76" stroke="#FF5050" stroke-width="6.875" stroke-linecap="round" stroke-linejoin="round" stroke-miterlimit="10" fill="none"/></g><g><path d="M1904.5 7819.5 2247.57 7816.76 2590.59 7819.5 2933.6 7819.5 3276.61 7812.76 3620.62 7786.5 3963.63 7816.76 4306.64 7806.76 4649.5 7792.76" stroke="#46B1E1" stroke-width="6.875" stroke-linecap="round" stroke-linejoin="round" stroke-miterlimit="10" fill="none"/></g><g><text fill="#595959" font-family="Aptos Narrow,Aptos Narrow_MSFontService,sans-serif" font-weight="400" font-stretch="semi-condensed" font-size="41" transform="matrix(1 0 0 1 1600.27 9525)">30.00</text></g><g><text fill="#595959" font-family="Aptos Narrow,Aptos Narrow_MSFontService,sans-serif" font-weight="400" font-stretch="semi-condensed" font-size="41" transform="matrix(1 0 0 1 1600.27 9192)">50.00</text></g><g><text fill="#595959" font-family="Aptos Narrow,Aptos Narrow_MSFontService,sans-serif" font-weight="400" font-stretch="semi-condensed" font-size="41" transform="matrix(1 0 0 1 1600.27 8858)">70.00</text></g><g><text fill="#595959" font-family="Aptos Narrow,Aptos Narrow_MSFontService,sans-serif" font-weight="400" font-stretch="semi-condensed" font-size="41" transform="matrix(1 0 0 1 1600.27 8525)">90.00</text></g><g><text fill="#595959" font-family="Aptos Narrow,Aptos Narrow_MSFontService,sans-serif" font-weight="400" font-stretch="semi-condensed" font-size="41" transform="matrix(1 0 0 1 1579.37 8191)">110.00</text></g><g><text fill="#595959" font-family="Aptos Narrow,Aptos Narrow_MSFontService,sans-serif" font-weight="400" font-stretch="semi-condensed" font-size="41" transform="matrix(1 0 0 1 1579.37 7858)">130.00</text></g><g><text fill="#595959" font-family="Aptos Narrow,Aptos Narrow_MSFontService,sans-serif" font-weight="400" font-stretch="semi-condensed" font-size="41" transform="matrix(1 0 0 1 1883.37 9578)">20</text></g><g><text fill="#595959" font-family="Aptos Narrow,Aptos Narrow_MSFontService,sans-serif" font-weight="400" font-stretch="semi-condensed" font-size="41" transform="matrix(1 0 0 1 2226.55 9578)">40</text></g><g><text fill="#595959" font-family="Aptos Narrow,Aptos Narrow_MSFontService,sans-serif" font-weight="400" font-stretch="semi-condensed" font-size="41" transform="matrix(1 0 0 1 2569.73 9578)">60</text></g><g><text fill="#595959" font-family="Aptos Narrow,Aptos Narrow_MSFontService,sans-serif" font-weight="400" font-stretch="semi-condensed" font-size="41" transform="matrix(1 0 0 1 2912.92 9578)">80</text></g><g><text fill="#595959" font-family="Aptos Narrow,Aptos Narrow_MSFontService,sans-serif" font-weight="400" font-stretch="semi-condensed" font-size="41" transform="matrix(1 0 0 1 3245.65 9578)">100</text></g><g><text fill="#595959" font-family="Aptos Narrow,Aptos Narrow_MSFontService,sans-serif" font-weight="400" font-stretch="semi-condensed" font-size="41" transform="matrix(1 0 0 1 3588.83 9578)">120</text></g><g><text fill="#595959" font-family="Aptos Narrow,Aptos Narrow_MSFontService,sans-serif" font-weight="400" font-stretch="semi-condensed" font-size="41" transform="matrix(1 0 0 1 3932.01 9578)">140</text></g><g><text fill="#595959" font-family="Aptos Narrow,Aptos Narrow_MSFontService,sans-serif" font-weight="400" font-stretch="semi-condensed" font-size="41" transform="matrix(1 0 0 1 4275.19 9578)">160</text></g><g><text fill="#595959" font-family="Aptos Narrow,Aptos Narrow_MSFontService,sans-serif" font-weight="400" font-stretch="semi-condensed" font-size="41" transform="matrix(1 0 0 1 4618.37 9578)">180</text></g><g><text fill="#595959" font-family="Aptos Narrow,Aptos Narrow_MSFontService,sans-serif" font-weight="400" font-stretch="semi-condensed" font-size="64" transform="matrix(6.12323e-17 -1 1 6.12323e-17 1547.29 8791)">Memoriaa (MB)</text></g><g><text fill="#595959" font-family="Aptos Narrow,Aptos Narrow_MSFontService,sans-serif" font-weight="400" font-stretch="semi-condensed" font-size="64" transform="matrix(1 0 0 1 2767.47 9663)">Tiempo desde el inicio de la Iteración (s)</text></g><g><text fill="#595959" font-family="Aptos Narrow,Aptos Narrow_MSFontService,sans-serif" font-weight="400" font-stretch="semi-condensed" font-size="92" transform="matrix(1 0 0 1 2704.58 7596)">Consumo de Memoria por Réplica</text></g><g><path d="M4896.5 7910.5 5011.5 7910.5" stroke="#747474" stroke-width="6.875" stroke-linecap="round" stroke-linejoin="round" stroke-miterlimit="10" fill="none" fill-rule="evenodd"/></g><g><text fill="#595959" font-family="Aptos Narrow,Aptos Narrow_MSFontService,sans-serif" font-weight="400" font-stretch="semi-condensed" font-size="41" transform="matrix(1 0 0 1 5024.7 7922)">PNG-0-1</text></g><g><path d="M4896.5 7987.5 5011.5 7987.5" stroke="#747474" stroke-width="6.875" stroke-linecap="round" stroke-linejoin="round" stroke-miterlimit="10" stroke-dasharray="0 13.75" fill="none" fill-rule="evenodd"/></g><g><text fill="#595959" font-family="Aptos Narrow,Aptos Narrow_MSFontService,sans-serif" font-weight="400" font-stretch="semi-condensed" font-size="41" transform="matrix(1 0 0 1 5024.7 8000)">PNG-0-2</text></g><g><path d="M4896.5 8065.5 5011.5 8065.5" stroke="#747474" stroke-width="6.875" stroke-linecap="round" stroke-linejoin="round" stroke-miterlimit="10" stroke-dasharray="20.625 27.5" fill="none" fill-rule="evenodd"/></g><g><text fill="#595959" font-family="Aptos Narrow,Aptos Narrow_MSFontService,sans-serif" font-weight="400" font-stretch="semi-condensed" font-size="41" transform="matrix(1 0 0 1 5024.7 8077)">PNG-0-3</text></g><g><path d="M4896.5 8142.5 5011.5 8142.5" stroke="#747474" stroke-width="6.875" stroke-linecap="round" stroke-linejoin="round" stroke-miterlimit="10" stroke-dasharray="48.125 27.5" fill="none" fill-rule="evenodd"/></g><g><text fill="#595959" font-family="Aptos Narrow,Aptos Narrow_MSFontService,sans-serif" font-weight="400" font-stretch="semi-condensed" font-size="41" transform="matrix(1 0 0 1 5024.7 8154)">PNG-0-4</text></g><g><path d="M4896.5 8220.5 5011.5 8220.5" stroke="#747474" stroke-width="6.875" stroke-linecap="round" stroke-linejoin="round" stroke-miterlimit="10" stroke-dasharray="48.125 27.5 0 27.5" fill="none" fill-rule="evenodd"/></g><g><text fill="#595959" font-family="Aptos Narrow,Aptos Narrow_MSFontService,sans-serif" font-weight="400" font-stretch="semi-condensed" font-size="41" transform="matrix(1 0 0 1 5024.7 8232)">PNG-0-5</text></g><g><path d="M4896.5 8297.5 5011.5 8297.5" stroke="#4EA72E" stroke-width="6.875" stroke-linecap="round" stroke-linejoin="round" stroke-miterlimit="10" fill="none" fill-rule="evenodd"/></g><g><text fill="#595959" font-family="Aptos Narrow,Aptos Narrow_MSFontService,sans-serif" font-weight="400" font-stretch="semi-condensed" font-size="41" transform="matrix(1 0 0 1 5024.7 8309)">PNG-1-1</text></g><g><path d="M4896.5 8374.5 5011.5 8374.5" stroke="#4EA72E" stroke-width="6.875" stroke-linecap="round" stroke-linejoin="round" stroke-miterlimit="10" stroke-dasharray="0 13.75" fill="none" fill-rule="evenodd"/></g><g><text fill="#595959" font-family="Aptos Narrow,Aptos Narrow_MSFontService,sans-serif" font-weight="400" font-stretch="semi-condensed" font-size="41" transform="matrix(1 0 0 1 5024.7 8386)">PNG-1-2</text></g><g><path d="M4896.5 8452.5 5011.5 8452.5" stroke="#4EA72E" stroke-width="6.875" stroke-linecap="round" stroke-linejoin="round" stroke-miterlimit="10" stroke-dasharray="20.625 27.5" fill="none" fill-rule="evenodd"/></g><g><text fill="#595959" font-family="Aptos Narrow,Aptos Narrow_MSFontService,sans-serif" font-weight="400" font-stretch="semi-condensed" font-size="41" transform="matrix(1 0 0 1 5024.7 8464)">PNG-1-3</text></g><g><path d="M4896 8529 5012 8529" stroke="#4EA72E" stroke-width="8.02083" stroke-linecap="round" stroke-linejoin="round" stroke-miterlimit="10" stroke-dasharray="56.1458 32.0833" fill="none" fill-rule="evenodd"/></g><g><text fill="#595959" font-family="Aptos Narrow,Aptos Narrow_MSFontService,sans-serif" font-weight="400" font-stretch="semi-condensed" font-size="41" transform="matrix(1 0 0 1 5024.7 8541)">PNG-1-4</text></g><g><path d="M4896.5 8606.5 5011.5 8606.5" stroke="#4EA72E" stroke-width="6.875" stroke-linecap="round" stroke-linejoin="round" stroke-miterlimit="10" stroke-dasharray="48.125 27.5 0 27.5" fill="none" fill-rule="evenodd"/></g><g><text fill="#595959" font-family="Aptos Narrow,Aptos Narrow_MSFontService,sans-serif" font-weight="400" font-stretch="semi-condensed" font-size="41" transform="matrix(1 0 0 1 5024.7 8618)">PNG-1-5</text></g><g><path d="M4896.5 8684.5 5011.5 8684.5" stroke="#A02B93" stroke-width="6.875" stroke-linecap="round" stroke-linejoin="round" stroke-miterlimit="10" fill="none" fill-rule="evenodd"/></g><g><text fill="#595959" font-family="Aptos Narrow,Aptos Narrow_MSFontService,sans-serif" font-weight="400" font-stretch="semi-condensed" font-size="41" transform="matrix(1 0 0 1 5024.7 8696)">PNG-2-1</text></g><g><path d="M4896.5 8761.5 5011.5 8761.5" stroke="#A02B93" stroke-width="6.875" stroke-linecap="round" stroke-linejoin="round" stroke-miterlimit="10" stroke-dasharray="0 13.75" fill="none" fill-rule="evenodd"/></g><g><text fill="#595959" font-family="Aptos Narrow,Aptos Narrow_MSFontService,sans-serif" font-weight="400" font-stretch="semi-condensed" font-size="41" transform="matrix(1 0 0 1 5024.7 8773)">PNG-2-2</text></g><g><path d="M4896.5 8838.5 5011.5 8838.5" stroke="#A02B93" stroke-width="6.875" stroke-linecap="round" stroke-linejoin="round" stroke-miterlimit="10" stroke-dasharray="20.625 27.5" fill="none" fill-rule="evenodd"/></g><g><text fill="#595959" font-family="Aptos Narrow,Aptos Narrow_MSFontService,sans-serif" font-weight="400" font-stretch="semi-condensed" font-size="41" transform="matrix(1 0 0 1 5024.7 8850)">PNG-2-3</text></g><g><path d="M4896.5 8916.5 5011.5 8916.5" stroke="#A02B93" stroke-width="6.875" stroke-linecap="round" stroke-linejoin="round" stroke-miterlimit="10" stroke-dasharray="48.125 27.5" fill="none" fill-rule="evenodd"/></g><g><text fill="#595959" font-family="Aptos Narrow,Aptos Narrow_MSFontService,sans-serif" font-weight="400" font-stretch="semi-condensed" font-size="41" transform="matrix(1 0 0 1 5024.7 8928)">PNG-2-4</text></g><g><path d="M4896.5 8993.5 5011.5 8993.5" stroke="#A02B93" stroke-width="6.875" stroke-linecap="round" stroke-linejoin="round" stroke-miterlimit="10" stroke-dasharray="48.125 27.5 0 27.5" fill="none" fill-rule="evenodd"/></g><g><text fill="#595959" font-family="Aptos Narrow,Aptos Narrow_MSFontService,sans-serif" font-weight="400" font-stretch="semi-condensed" font-size="41" transform="matrix(1 0 0 1 5024.7 9005)">PNG-2-5</text></g><g><path d="M4896.5 9070.5 5011.5 9070.5" stroke="#E97132" stroke-width="6.875" stroke-linecap="round" stroke-linejoin="round" stroke-miterlimit="10" fill="none" fill-rule="evenodd"/></g><g><text fill="#595959" font-family="Aptos Narrow,Aptos Narrow_MSFontService,sans-serif" font-weight="400" font-stretch="semi-condensed" font-size="41" transform="matrix(1 0 0 1 5024.7 9082)">PNG-3-1</text></g><g><path d="M4896 9148 5012 9148" stroke="#E97132" stroke-width="8.02083" stroke-linecap="round" stroke-linejoin="round" stroke-miterlimit="10" stroke-dasharray="24.0625 32.0833" fill="none" fill-rule="evenodd"/></g><g><text fill="#595959" font-family="Aptos Narrow,Aptos Narrow_MSFontService,sans-serif" font-weight="400" font-stretch="semi-condensed" font-size="41" transform="matrix(1 0 0 1 5024.7 9160)">PNG-3-2</text></g><g><path d="M4896.5 9225.5 5011.5 9225.5" stroke="#E97132" stroke-width="6.875" stroke-linecap="round" stroke-linejoin="round" stroke-miterlimit="10" fill="none" fill-rule="evenodd"/></g><g><text fill="#595959" font-family="Aptos Narrow,Aptos Narrow_MSFontService,sans-serif" font-weight="400" font-stretch="semi-condensed" font-size="41" transform="matrix(1 0 0 1 5024.7 9237)">PNG-3-3</text></g><g><path d="M4896.5 9302.5 5011.5 9302.5" stroke="#E97132" stroke-width="6.875" stroke-linecap="round" stroke-linejoin="round" stroke-miterlimit="10" fill="none" fill-rule="evenodd"/></g><g><path d="M4943.66 9291.8 4965.66 9291.8 4965.66 9313.81 4943.66 9313.81Z" stroke="#E97132" stroke-width="3.4375" stroke-linejoin="round" stroke-miterlimit="10" fill="#114D68"/></g><g><text fill="#595959" font-family="Aptos Narrow,Aptos Narrow_MSFontService,sans-serif" font-weight="400" font-stretch="semi-condensed" font-size="41" transform="matrix(1 0 0 1 5024.7 9314)">PNG-3-4</text></g><g><path d="M4896.5 9380.5 5011.5 9380.5" stroke="#FF5050" stroke-width="6.875" stroke-linecap="round" stroke-linejoin="round" stroke-miterlimit="10" fill="none" fill-rule="evenodd"/></g><g><text fill="#595959" font-family="Aptos Narrow,Aptos Narrow_MSFontService,sans-serif" font-weight="400" font-stretch="semi-condensed" font-size="41" transform="matrix(1 0 0 1 5024.7 9392)">PNG-4-1</text></g><g><path d="M4896.5 9457.5 5011.5 9457.5" stroke="#46B1E1" stroke-width="6.875" stroke-linecap="round" stroke-linejoin="round" stroke-miterlimit="10" fill="none" fill-rule="evenodd"/></g><g><text fill="#595959" font-family="Aptos Narrow,Aptos Narrow_MSFontService,sans-serif" font-weight="400" font-stretch="semi-condensed" font-size="41" transform="matrix(1 0 0 1 5024.7 9469)">PNG-5-1</text></g><rect x="1430.5" y="7476.5" width="3783" height="2263" stroke="#D9D9D9" stroke-width="3.4375" stroke-linejoin="round" stroke-miterlimit="10" fill="none"/></g></svg>