<svg width="3617" height="2085" xmlns="http://www.w3.org/2000/svg" xmlns:xlink="http://www.w3.org/1999/xlink" xml:space="preserve" overflow="hidden"><defs><clipPath id="clip0"><rect x="278" y="6214" width="3617" height="2085"/></clipPath></defs><g clip-path="url(#clip0)" transform="translate(-278 -6214)"><rect x="279" y="6215" width="3614" height="2082" fill="#FFFFFF"/><g><path d="M649.5 7628.75 3509.5 7628.75M649.5 7395.74 3509.5 7395.74M649.5 7161.74 3509.5 7161.74M649.5 6927.73 3509.5 6927.73M649.5 6694.5 3509.5 6694.5" stroke="#D9D9D9" stroke-width="3.4375" stroke-linejoin="round" stroke-miterlimit="10" fill="none"/></g><g><path d="M0 0 0.000360892 1285" stroke="#AEAEAE" stroke-width="3.4375" stroke-linejoin="round" stroke-miterlimit="10" fill="none" fill-rule="evenodd" transform="matrix(1 0 0 -1 649.5 7862.5)"/></g><g><path d="M649.521 7862.5 659.5 7862.5M649.521 7815.76 659.5 7815.76M649.521 7769.76 659.5 7769.76M649.521 7722.75 659.5 7722.75M649.521 7675.75 659.5 7675.75M649.521 7628.75 659.5 7628.75M649.521 7582.75 659.5 7582.75M649.521 7535.75 659.5 7535.75M649.521 7488.75 659.5 7488.75M649.521 7441.74 659.5 7441.74M649.521 7395.74 659.5 7395.74M649.521 7348.74 659.5 7348.74M649.521 7301.74 659.5 7301.74M649.521 7254.74 659.5 7254.74M649.521 7208.74 659.5 7208.74M649.521 7161.74 659.5 7161.74M649.521 7114.73 659.5 7114.73M649.521 7067.73 659.5 7067.73M649.521 7021.73 659.5 7021.73M649.521 6974.73 659.5 6974.73M649.521 6927.73 659.5 6927.73M649.521 6880.73 659.5 6880.73M649.521 6834.72 659.5 6834.72M649.521 6787.72 659.5 6787.72M649.521 6740.72 659.5 6740.72M649.521 6693.72 659.5 6693.72M649.521 6647.72 659.5 6647.72M649.521 6600.5 659.5 6600.5M636.5 7862.5 649.521 7862.5M636.5 7628.75 649.521 7628.75M636.5 7395.74 649.521 7395.74M636.5 7161.74 649.521 7161.74M636.5 6927.73 649.521 6927.73M636.5 6693.72 649.521 6693.72" stroke="#AEAEAE" stroke-width="3.4375" stroke-linejoin="round" stroke-miterlimit="10" fill="none"/></g><g><path d="M649.5 7862.5 3509.5 7862.5" stroke="#D9D9D9" stroke-width="3.4375" stroke-linejoin="round" stroke-miterlimit="10" fill="none" fill-rule="evenodd"/></g><g><path d="M808.527 7853.5 808.527 7862.76M1126.54 7853.5 1126.54 7862.76M1444.55 7853.5 1444.55 7862.76M1761.56 7853.5 1761.56 7862.76M2079.57 7853.5 2079.57 7862.76M2397.58 7853.5 2397.58 7862.76M2715.59 7853.5 2715.59 7862.76M3032.6 7853.5 3032.6 7862.76M3350.61 7853.5 3350.61 7862.76M3509.5 7853.5 3509.5 7862.76M649.5 7862.76 649.5 7875.5M967.532 7862.76 967.532 7875.5M1285.54 7862.76 1285.54 7875.5M1602.55 7862.76 1602.55 7875.5M1920.56 7862.76 1920.56 7875.5M2238.57 7862.76 2238.57 7875.5M2556.58 7862.76 2556.58 7875.5M2873.59 7862.76 2873.59 7875.5M3191.6 7862.76 3191.6 7875.5M3509.5 7862.76 3509.5 7875.5" stroke="#D9D9D9" stroke-width="3.4375" stroke-linejoin="round" stroke-miterlimit="10" fill="none"/></g><g><path d="M808.5 7553.5 1126.54 7006.5 1444.55 7028.73 1761.56 7079.73 2079.57 7101.73 2397.58 7193.74 2715.59 7217.74 3032.6 7296.74 3350.5 7286.74" stroke="#747474" stroke-width="6.875" stroke-linecap="round" stroke-linejoin="round" stroke-miterlimit="10" fill="none"/></g><g><path d="M1126.5 7279.5 1444.55 6663.5 1761.56 6946.73 2079.57 6982.73 2397.58 7090.73 2715.59 7052.73 3032.6 7225.74 3350.5 7193.74" stroke="#747474" stroke-width="6.875" stroke-linecap="round" stroke-linejoin="round" stroke-miterlimit="10" stroke-dasharray="0 13.75" fill="none"/></g><g><path d="M1761.5 7335.5 2079.57 6658.5 2397.58 6915.73 2715.59 7082.73 3032.6 7188.74 3350.5 7159.74" stroke="#747474" stroke-width="6.875" stroke-linecap="round" stroke-linejoin="round" stroke-miterlimit="10" stroke-dasharray="20.625 27.5" fill="none"/></g><g><path d="M2397.5 7398.5 2715.59 6691.5 3032.6 6945.73 3350.5 7077.73" stroke="#747474" stroke-width="6.875" stroke-linecap="round" stroke-linejoin="round" stroke-miterlimit="10" stroke-dasharray="20.625 27.5 0 27.5" fill="none"/></g><g><path d="M3032.5 7408.5 3350.5 6864.5" stroke="#747474" stroke-width="6.875" stroke-linecap="round" stroke-linejoin="round" stroke-miterlimit="10" stroke-dasharray="48.125 27.5" fill="none"/></g><g><path d="M808.5 7651.5 1126.54 6996.5 1444.55 7023.73 1761.56 7107.73 2079.57 7083.73 2397.58 7105.73 2715.59 7184.74 3032.6 7156.74 3350.5 7215.74" stroke="#4EA72E" stroke-width="6.875" stroke-linecap="round" stroke-linejoin="round" stroke-miterlimit="10" fill="none"/></g><g><path d="M1126.5 7498.5 1444.55 6834.5 1761.56 6857.73 2079.57 6957.73 2397.58 7092.73 2715.59 7068.73 3032.6 7162.74 3350.5 7160.74" stroke="#4EA72E" stroke-width="6.875" stroke-linecap="round" stroke-linejoin="round" stroke-miterlimit="10" stroke-dasharray="0 13.75" fill="none"/></g><g><path d="M1761.5 7540.5 2079.57 6838.72 2397.58 6811.5 2715.59 7040.73 3032.6 7054.73 3350.5 7228.74" stroke="#4EA72E" stroke-width="6.875" stroke-linecap="round" stroke-linejoin="round" stroke-miterlimit="10" stroke-dasharray="20.625 27.5" fill="none"/></g><g><path d="M2397.5 7524.5 2715.59 6913.73 3032.6 6806.5 3350.5 7134.73" stroke="#4EA72E" stroke-width="6.875" stroke-linecap="round" stroke-linejoin="round" stroke-miterlimit="10" stroke-dasharray="20.625 27.5 0 27.5" fill="none"/></g><g><path d="M3032.5 7725.5 3350.5 6972.5" stroke="#4EA72E" stroke-width="6.875" stroke-linecap="round" stroke-linejoin="round" stroke-miterlimit="10" stroke-dasharray="48.125 27.5" fill="none"/></g><g><path d="M808.5 7025.73 1126.54 6997.5 1444.55 7002.73 1761.56 7011.73 2079.57 7009.73 2397.58 7033.73 2715.59 7034.73 3032.6 7156.74 3350.5 7169.5" stroke="#A02B93" stroke-width="6.875" stroke-linecap="round" stroke-linejoin="round" stroke-miterlimit="10" fill="none"/></g><g><path d="M1126.5 7107.73 1444.55 7053.73 1761.56 7008.5 2079.57 7092.73 2397.58 7199.5 2715.59 7059.73 3032.6 7085.73 3350.5 7115.73" stroke="#A02B93" stroke-width="6.875" stroke-linecap="round" stroke-linejoin="round" stroke-miterlimit="10" stroke-dasharray="0 13.75" fill="none"/></g><g><path d="M1761.5 7058.73 2079.57 7138.73 2397.58 7022.5 2715.59 7082.73 3032.6 7149.73 3350.5 7194.5" stroke="#A02B93" stroke-width="6.875" stroke-linecap="round" stroke-linejoin="round" stroke-miterlimit="10" stroke-dasharray="20.625 27.5" fill="none"/></g><g><path d="M2397.5 7132.5 2715.59 7018.5 3032.6 7020.73 3350.5 7062.73" stroke="#A02B93" stroke-width="6.875" stroke-linecap="round" stroke-linejoin="round" stroke-miterlimit="10" stroke-dasharray="20.625 27.5 0 27.5" fill="none"/></g><g><path d="M3032.5 7099.5 3350.5 7050.5" stroke="#A02B93" stroke-width="6.875" stroke-linecap="round" stroke-linejoin="round" stroke-miterlimit="10" stroke-dasharray="48.125 27.5" fill="none"/></g><g><path d="M808.5 7407.5 1126.54 7002.5 1444.55 7002.5 1761.56 7004.73 2079.57 7002.5 2397.58 7002.5 2715.59 7002.5 3032.6 7004.73 3350.5 7004.73" stroke="#E97132" stroke-width="6.875" stroke-linecap="round" stroke-linejoin="round" stroke-miterlimit="10" fill="none"/></g><g><path d="M808.5 7622.5 1126.54 7009.73 1444.55 7009.73 1761.56 7004.5 2079.57 7007.73 2397.58 7007.73 2715.59 7011.73 3032.6 7021.73 3350.5 7021.73" stroke="#FF5050" stroke-width="6.875" stroke-linecap="round" stroke-linejoin="round" stroke-miterlimit="10" fill="none"/></g><g><path d="M808.5 7798.5 1126.54 7043.73 1444.55 7014.73 1761.56 7014.73 2079.57 7014.73 2397.58 7002.5 2715.59 7014.73 3032.6 7014.73 3350.5 7014.73" stroke="#0F9ED5" stroke-width="6.875" stroke-linecap="round" stroke-linejoin="round" stroke-miterlimit="10" fill="none"/></g><g><text fill="#595959" font-family="Aptos Narrow,Aptos Narrow_MSFontService,sans-serif" font-weight="400" font-stretch="semi-condensed" font-size="41" transform="matrix(1 0 0 1 506.863 7875)">0.30%</text></g><g><text fill="#595959" font-family="Aptos Narrow,Aptos Narrow_MSFontService,sans-serif" font-weight="400" font-stretch="semi-condensed" font-size="41" transform="matrix(1 0 0 1 506.863 7641)">0.50%</text></g><g><text fill="#595959" font-family="Aptos Narrow,Aptos Narrow_MSFontService,sans-serif" font-weight="400" font-stretch="semi-condensed" font-size="41" transform="matrix(1 0 0 1 506.863 7407)">0.70%</text></g><g><text fill="#595959" font-family="Aptos Narrow,Aptos Narrow_MSFontService,sans-serif" font-weight="400" font-stretch="semi-condensed" font-size="41" transform="matrix(1 0 0 1 506.863 7173)">0.90%</text></g><g><text fill="#595959" font-family="Aptos Narrow,Aptos Narrow_MSFontService,sans-serif" font-weight="400" font-stretch="semi-condensed" font-size="41" transform="matrix(1 0 0 1 506.863 6939)">1.10%</text></g><g><text fill="#595959" font-family="Aptos Narrow,Aptos Narrow_MSFontService,sans-serif" font-weight="400" font-stretch="semi-condensed" font-size="41" transform="matrix(1 0 0 1 506.863 6706)">1.30%</text></g><g><text fill="#595959" font-family="Aptos Narrow,Aptos Narrow_MSFontService,sans-serif" font-weight="400" font-stretch="semi-condensed" font-size="41" transform="matrix(1 0 0 1 787.721 7928)">20</text></g><g><text fill="#595959" font-family="Aptos Narrow,Aptos Narrow_MSFontService,sans-serif" font-weight="400" font-stretch="semi-condensed" font-size="41" transform="matrix(1 0 0 1 1105.47 7928)">40</text></g><g><text fill="#595959" font-family="Aptos Narrow,Aptos Narrow_MSFontService,sans-serif" font-weight="400" font-stretch="semi-condensed" font-size="41" transform="matrix(1 0 0 1 1423.23 7928)">60</text></g><g><text fill="#595959" font-family="Aptos Narrow,Aptos Narrow_MSFontService,sans-serif" font-weight="400" font-stretch="semi-condensed" font-size="41" transform="matrix(1 0 0 1 1740.98 7928)">80</text></g><g><text fill="#595959" font-family="Aptos Narrow,Aptos Narrow_MSFontService,sans-serif" font-weight="400" font-stretch="semi-condensed" font-size="41" transform="matrix(1 0 0 1 2048.28 7928)">100</text></g><g><text fill="#595959" font-family="Aptos Narrow,Aptos Narrow_MSFontService,sans-serif" font-weight="400" font-stretch="semi-condensed" font-size="41" transform="matrix(1 0 0 1 2366.04 7928)">120</text></g><g><text fill="#595959" font-family="Aptos Narrow,Aptos Narrow_MSFontService,sans-serif" font-weight="400" font-stretch="semi-condensed" font-size="41" transform="matrix(1 0 0 1 2683.79 7928)">140</text></g><g><text fill="#595959" font-family="Aptos Narrow,Aptos Narrow_MSFontService,sans-serif" font-weight="400" font-stretch="semi-condensed" font-size="41" transform="matrix(1 0 0 1 3001.54 7928)">160</text></g><g><text fill="#595959" font-family="Aptos Narrow,Aptos Narrow_MSFontService,sans-serif" font-weight="400" font-stretch="semi-condensed" font-size="41" transform="matrix(1 0 0 1 3319.3 7928)">180</text></g><g><text fill="#595959" font-family="Aptos Narrow,Aptos Narrow_MSFontService,sans-serif" font-weight="400" font-stretch="semi-condensed" font-size="64" transform="matrix(6.12323e-17 -1 1 6.12323e-17 447.28 7496)">Consumo de CPU (%)</text></g><g><text fill="#595959" font-family="Aptos Narrow,Aptos Narrow_MSFontService,sans-serif" font-weight="400" font-stretch="semi-condensed" font-size="64" transform="matrix(1 0 0 1 1605.87 8050)">Tiempo desde el inicio de la iteración</text></g><g><text fill="#595959" font-family="Aptos Narrow,Aptos Narrow_MSFontService,sans-serif" font-weight="400" font-stretch="semi-condensed" font-size="92" transform="matrix(1 0 0 1 1525.41 6418)">Consumo de CPU por Réplica</text></g><g><path d="M3590.5 6675.5 3705.5 6675.5" stroke="#747474" stroke-width="6.875" stroke-linecap="round" stroke-linejoin="round" stroke-miterlimit="10" fill="none" fill-rule="evenodd"/></g><g><text fill="#595959" font-family="Aptos Narrow,Aptos Narrow_MSFontService,sans-serif" font-weight="400" font-stretch="semi-condensed" font-size="41" transform="matrix(1 0 0 1 3718.7 6687)">JPG-0-1</text></g><g><path d="M3590.5 6752.5 3705.5 6752.5" stroke="#747474" stroke-width="6.875" stroke-linecap="round" stroke-linejoin="round" stroke-miterlimit="10" stroke-dasharray="0 13.75" fill="none" fill-rule="evenodd"/></g><g><text fill="#595959" font-family="Aptos Narrow,Aptos Narrow_MSFontService,sans-serif" font-weight="400" font-stretch="semi-condensed" font-size="41" transform="matrix(1 0 0 1 3718.7 6764)">JPG-0-2</text></g><g><path d="M3590.5 6829.5 3705.5 6829.5" stroke="#747474" stroke-width="6.875" stroke-linecap="round" stroke-linejoin="round" stroke-miterlimit="10" stroke-dasharray="20.625 27.5" fill="none" fill-rule="evenodd"/></g><g><text fill="#595959" font-family="Aptos Narrow,Aptos Narrow_MSFontService,sans-serif" font-weight="400" font-stretch="semi-condensed" font-size="41" transform="matrix(1 0 0 1 3718.7 6841)">JPG-0-3</text></g><g><path d="M3590.5 6907.5 3705.5 6907.5" stroke="#747474" stroke-width="6.875" stroke-linecap="round" stroke-linejoin="round" stroke-miterlimit="10" stroke-dasharray="20.625 27.5 0 27.5" fill="none" fill-rule="evenodd"/></g><g><text fill="#595959" font-family="Aptos Narrow,Aptos Narrow_MSFontService,sans-serif" font-weight="400" font-stretch="semi-condensed" font-size="41" transform="matrix(1 0 0 1 3718.7 6919)">JPG-0-4</text></g><g><path d="M3590.5 6984.5 3705.5 6984.5" stroke="#747474" stroke-width="6.875" stroke-linecap="round" stroke-linejoin="round" stroke-miterlimit="10" stroke-dasharray="48.125 27.5" fill="none" fill-rule="evenodd"/></g><g><text fill="#595959" font-family="Aptos Narrow,Aptos Narrow_MSFontService,sans-serif" font-weight="400" font-stretch="semi-condensed" font-size="41" transform="matrix(1 0 0 1 3718.7 6996)">JPG-0-5</text></g><g><path d="M3590.5 7061.5 3705.5 7061.5" stroke="#4EA72E" stroke-width="6.875" stroke-linecap="round" stroke-linejoin="round" stroke-miterlimit="10" fill="none" fill-rule="evenodd"/></g><g><text fill="#595959" font-family="Aptos Narrow,Aptos Narrow_MSFontService,sans-serif" font-weight="400" font-stretch="semi-condensed" font-size="41" transform="matrix(1 0 0 1 3718.7 7073)">JPG-1-1</text></g><g><path d="M3590.5 7139.5 3705.5 7139.5" stroke="#4EA72E" stroke-width="6.875" stroke-linecap="round" stroke-linejoin="round" stroke-miterlimit="10" stroke-dasharray="0 13.75" fill="none" fill-rule="evenodd"/></g><g><text fill="#595959" font-family="Aptos Narrow,Aptos Narrow_MSFontService,sans-serif" font-weight="400" font-stretch="semi-condensed" font-size="41" transform="matrix(1 0 0 1 3718.7 7151)">JPG-1-2</text></g><g><path d="M3590.5 7216.5 3705.5 7216.5" stroke="#4EA72E" stroke-width="6.875" stroke-linecap="round" stroke-linejoin="round" stroke-miterlimit="10" stroke-dasharray="20.625 27.5" fill="none" fill-rule="evenodd"/></g><g><text fill="#595959" font-family="Aptos Narrow,Aptos Narrow_MSFontService,sans-serif" font-weight="400" font-stretch="semi-condensed" font-size="41" transform="matrix(1 0 0 1 3718.7 7228)">JPG-1-3</text></g><g><path d="M3590.5 7293.5 3705.5 7293.5" stroke="#4EA72E" stroke-width="6.875" stroke-linecap="round" stroke-linejoin="round" stroke-miterlimit="10" stroke-dasharray="20.625 27.5 0 27.5" fill="none" fill-rule="evenodd"/></g><g><text fill="#595959" font-family="Aptos Narrow,Aptos Narrow_MSFontService,sans-serif" font-weight="400" font-stretch="semi-condensed" font-size="41" transform="matrix(1 0 0 1 3718.7 7306)">JPG-1-4</text></g><g><path d="M3590.5 7371.5 3705.5 7371.5" stroke="#4EA72E" stroke-width="6.875" stroke-linecap="round" stroke-linejoin="round" stroke-miterlimit="10" stroke-dasharray="48.125 27.5" fill="none" fill-rule="evenodd"/></g><g><text fill="#595959" font-family="Aptos Narrow,Aptos Narrow_MSFontService,sans-serif" font-weight="400" font-stretch="semi-condensed" font-size="41" transform="matrix(1 0 0 1 3718.7 7383)">JPG-1-5</text></g><g><path d="M3590.5 7448.5 3705.5 7448.5" stroke="#A02B93" stroke-width="6.875" stroke-linecap="round" stroke-linejoin="round" stroke-miterlimit="10" fill="none" fill-rule="evenodd"/></g><g><text fill="#595959" font-family="Aptos Narrow,Aptos Narrow_MSFontService,sans-serif" font-weight="400" font-stretch="semi-condensed" font-size="41" transform="matrix(1 0 0 1 3718.7 7460)">JPG-2-1</text></g><g><path d="M3590.5 7526.5 3705.5 7526.5" stroke="#A02B93" stroke-width="6.875" stroke-linecap="round" stroke-linejoin="round" stroke-miterlimit="10" stroke-dasharray="0 13.75" fill="none" fill-rule="evenodd"/></g><g><text fill="#595959" font-family="Aptos Narrow,Aptos Narrow_MSFontService,sans-serif" font-weight="400" font-stretch="semi-condensed" font-size="41" transform="matrix(1 0 0 1 3718.7 7538)">JPG-2-2</text></g><g><path d="M3590.5 7603.5 3705.5 7603.5" stroke="#A02B93" stroke-width="6.875" stroke-linecap="round" stroke-linejoin="round" stroke-miterlimit="10" stroke-dasharray="20.625 27.5" fill="none" fill-rule="evenodd"/></g><g><text fill="#595959" font-family="Aptos Narrow,Aptos Narrow_MSFontService,sans-serif" font-weight="400" font-stretch="semi-condensed" font-size="41" transform="matrix(1 0 0 1 3718.7 7615)">JPG-2-3</text></g><g><path d="M3590.5 7680.5 3705.5 7680.5" stroke="#A02B93" stroke-width="6.875" stroke-linecap="round" stroke-linejoin="round" stroke-miterlimit="10" stroke-dasharray="20.625 27.5 0 27.5" fill="none" fill-rule="evenodd"/></g><g><text fill="#595959" font-family="Aptos Narrow,Aptos Narrow_MSFontService,sans-serif" font-weight="400" font-stretch="semi-condensed" font-size="41" transform="matrix(1 0 0 1 3718.7 7692)">JPG-2-4</text></g><g><path d="M3590.5 7758.5 3705.5 7758.5" stroke="#A02B93" stroke-width="6.875" stroke-linecap="round" stroke-linejoin="round" stroke-miterlimit="10" stroke-dasharray="48.125 27.5" fill="none" fill-rule="evenodd"/></g><g><text fill="#595959" font-family="Aptos Narrow,Aptos Narrow_MSFontService,sans-serif" font-weight="400" font-stretch="semi-condensed" font-size="41" transform="matrix(1 0 0 1 3718.7 7770)">JPG-2-5</text></g><g><path d="M3590.5 7835.5 3705.5 7835.5" stroke="#E97132" stroke-width="6.875" stroke-linecap="round" stroke-linejoin="round" stroke-miterlimit="10" fill="none" fill-rule="evenodd"/></g><g><text fill="#595959" font-family="Aptos Narrow,Aptos Narrow_MSFontService,sans-serif" font-weight="400" font-stretch="semi-condensed" font-size="41" transform="matrix(1 0 0 1 3718.7 7847)">JPG-3-1</text></g><g><path d="M3590.5 7912.5 3705.5 7912.5" stroke="#FF5050" stroke-width="6.875" stroke-linecap="round" stroke-linejoin="round" stroke-miterlimit="10" fill="none" fill-rule="evenodd"/></g><g><text fill="#595959" font-family="Aptos Narrow,Aptos Narrow_MSFontService,sans-serif" font-weight="400" font-stretch="semi-condensed" font-size="41" transform="matrix(1 0 0 1 3718.7 7924)">JPG-4</text></g><g><path d="M3590.5 7990.5 3705.5 7990.5" stroke="#0F9ED5" stroke-width="6.875" stroke-linecap="round" stroke-linejoin="round" stroke-miterlimit="10" fill="none" fill-rule="evenodd"/></g><g><text fill="#595959" font-family="Aptos Narrow,Aptos Narrow_MSFontService,sans-serif" font-weight="400" font-stretch="semi-condensed" font-size="41" transform="matrix(1 0 0 1 3718.7 8002)">JPG-5</text></g><rect x="279.5" y="6215.5" width="3614" height="2082" stroke="#D9D9D9" stroke-width="3.4375" stroke-linejoin="round" stroke-miterlimit="10" fill="none"/></g></svg>