<svg width="3782" height="2415" xmlns="http://www.w3.org/2000/svg" xmlns:xlink="http://www.w3.org/1999/xlink" xml:space="preserve" overflow="hidden"><defs><clipPath id="clip0"><rect x="1425" y="5739" width="3782" height="2415"/></clipPath></defs><g clip-path="url(#clip0)" transform="translate(-1425 -5739)"><rect x="1426" y="5740" width="3779" height="2412" fill="#FFFFFF"/><g><path d="M1675.5 7760.75 4827.5 7760.75M1675.5 7595.75 4827.5 7595.75M1675.5 7430.74 4827.5 7430.74M1675.5 7264.74 4827.5 7264.74M1675.5 7099.73 4827.5 7099.73M1675.5 6934.73 4827.5 6934.73M1675.5 6769.72 4827.5 6769.72M1675.5 6604.72 4827.5 6604.72M1675.5 6438.71 4827.5 6438.71M1675.5 6273.71 4827.5 6273.71M1675.5 6108.7 4827.5 6108.7M1675.5 5943.5 4827.5 5943.5" stroke="#D9D9D9" stroke-width="3.4375" stroke-linejoin="round" stroke-miterlimit="10" fill="none"/></g><g><path d="M0 0 0.000360892 1983" stroke="#747474" stroke-width="3.4375" stroke-linejoin="round" stroke-miterlimit="10" fill="none" fill-rule="evenodd" transform="matrix(1 0 0 -1 1675.5 7926.5)"/></g><g><path d="M1675.56 7926.5 1685.5 7926.5M1675.56 7892.76 1685.5 7892.76M1675.56 7859.76 1685.5 7859.76M1675.56 7826.76 1685.5 7826.76M1675.56 7793.76 1685.5 7793.76M1675.56 7760.75 1685.5 7760.75M1675.56 7727.75 1685.5 7727.75M1675.56 7694.75 1685.5 7694.75M1675.56 7661.75 1685.5 7661.75M1675.56 7628.75 1685.5 7628.75M1675.56 7595.75 1685.5 7595.75M1675.56 7562.75 1685.5 7562.75M1675.56 7529.75 1685.5 7529.75M1675.56 7496.75 1685.5 7496.75M1675.56 7463.75 1685.5 7463.75M1675.56 7430.74 1685.5 7430.74M1675.56 7397.74 1685.5 7397.74M1675.56 7364.74 1685.5 7364.74M1675.56 7331.74 1685.5 7331.74M1675.56 7298.74 1685.5 7298.74M1675.56 7264.74 1685.5 7264.74M1675.56 7231.74 1685.5 7231.74M1675.56 7198.74 1685.5 7198.74M1675.56 7165.74 1685.5 7165.74M1675.56 7132.73 1685.5 7132.73M1675.56 7099.73 1685.5 7099.73M1675.56 7066.73 1685.5 7066.73M1675.56 7033.73 1685.5 7033.73M1675.56 7000.73 1685.5 7000.73M1675.56 6967.73 1685.5 6967.73M1675.56 6934.73 1685.5 6934.73M1675.56 6901.73 1685.5 6901.73M1675.56 6868.73 1685.5 6868.73M1675.56 6835.72 1685.5 6835.72M1675.56 6802.72 1685.5 6802.72M1675.56 6769.72 1685.5 6769.72M1675.56 6736.72 1685.5 6736.72M1675.56 6703.72 1685.5 6703.72M1675.56 6670.72 1685.5 6670.72M1675.56 6637.72 1685.5 6637.72M1675.56 6604.72 1685.5 6604.72M1675.56 6570.72 1685.5 6570.72M1675.56 6537.71 1685.5 6537.71M1675.56 6504.71 1685.5 6504.71M1675.56 6471.71 1685.5 6471.71M1675.56 6438.71 1685.5 6438.71M1675.56 6405.71 1685.5 6405.71M1675.56 6372.71 1685.5 6372.71M1675.56 6339.71 1685.5 6339.71M1675.56 6306.71 1685.5 6306.71M1675.56 6273.71 1685.5 6273.71M1675.56 6240.71 1685.5 6240.71M1675.56 6207.7 1685.5 6207.7M1675.56 6174.7 1685.5 6174.7M1675.56 6141.7 1685.5 6141.7M1675.56 6108.7 1685.5 6108.7M1675.56 6075.7 1685.5 6075.7M1675.56 6042.7 1685.5 6042.7M1675.56 6009.7 1685.5 6009.7M1675.56 5976.7 1685.5 5976.7M1675.56 5943.5 1685.5 5943.5M1662.5 7926.5 1675.56 7926.5M1662.5 7760.75 1675.56 7760.75M1662.5 7595.75 1675.56 7595.75M1662.5 7430.74 1675.56 7430.74M1662.5 7264.74 1675.56 7264.74M1662.5 7099.73 1675.56 7099.73M1662.5 6934.73 1675.56 6934.73M1662.5 6769.72 1675.56 6769.72M1662.5 6604.72 1675.56 6604.72M1662.5 6438.71 1675.56 6438.71M1662.5 6273.71 1675.56 6273.71M1662.5 6108.7 1675.56 6108.7M1662.5 5943.5 1675.56 5943.5" stroke="#747474" stroke-width="3.4375" stroke-linejoin="round" stroke-miterlimit="10" fill="none"/></g><g><path d="M1675.5 7926.5 4827.5 7926.5" stroke="#D9D9D9" stroke-width="3.4375" stroke-linejoin="round" stroke-miterlimit="10" fill="none" fill-rule="evenodd"/></g><g><path d="M1850.56 7916.5 1850.56 7925.76M2201.57 7916.5 2201.57 7925.76M2551.58 7916.5 2551.58 7925.76M2901.6 7916.5 2901.6 7925.76M3251.61 7916.5 3251.61 7925.76M3601.62 7916.5 3601.62 7925.76M3951.63 7916.5 3951.63 7925.76M4302.64 7916.5 4302.64 7925.76M4652.65 7916.5 4652.65 7925.76M4827.5 7916.5 4827.5 7925.76M1675.5 7925.76 1675.5 7939.5M2025.57 7925.76 2025.57 7939.5M2376.58 7925.76 2376.58 7939.5M2726.59 7925.76 2726.59 7939.5M3076.6 7925.76 3076.6 7939.5M3426.61 7925.76 3426.61 7939.5M3776.62 7925.76 3776.62 7939.5M4126.64 7925.76 4126.64 7939.5M4477.65 7925.76 4477.65 7939.5M4827.5 7925.76 4827.5 7939.5" stroke="#D9D9D9" stroke-width="3.4375" stroke-linejoin="round" stroke-miterlimit="10" fill="none"/></g><g><path d="M1850.5 6290.71 2201.57 6266.71 2551.58 6237.7 2901.6 6210.5 3251.61 6220.7 3601.62 6214.7 3951.63 6273.71 4302.64 6315.71 4652.5 6425.5" stroke="#747474" stroke-width="6.875" stroke-linecap="round" stroke-linejoin="round" stroke-miterlimit="10" fill="none"/></g><g><path d="M2201.5 7552.5 2551.58 6659.72 2901.6 6356.71 3251.61 6247.71 3601.62 6147.7 3951.63 6081.7 4302.64 6025.5 4652.5 6042.7" stroke="#747474" stroke-width="6.875" stroke-linecap="round" stroke-linejoin="round" stroke-miterlimit="10" stroke-dasharray="20.625 27.5" fill="none"/></g><g><path d="M2901.5 7623.5 3251.61 6858.73 3601.62 6432.71 3951.63 6375.71 4302.64 6316.71 4652.5 6267.5" stroke="#747474" stroke-width="6.875" stroke-linecap="round" stroke-linejoin="round" stroke-miterlimit="10" stroke-dasharray="20.625 27.5 0 27.5" fill="none"/></g><g><path d="M3601.5 7769.5 3951.63 6893.73 4302.64 6518.71 4652.5 6435.5" stroke="#747474" stroke-width="6.875" stroke-linecap="round" stroke-linejoin="round" stroke-miterlimit="10" stroke-dasharray="48.125 27.5" fill="none"/></g><g><path d="M4302.5 7773.5 4652.5 7019.5" stroke="#747474" stroke-width="6.875" stroke-linecap="round" stroke-linejoin="round" stroke-miterlimit="10" stroke-dasharray="48.125 27.5 0 27.5" fill="none"/></g><g><path d="M1850.5 6303.71 2201.57 6224.5 2551.58 6233.7 2901.6 6237.7 3251.61 6256.71 3601.62 6296.71 3951.63 6339.71 4302.64 6385.71 4652.5 6402.5" stroke="#4EA72E" stroke-width="6.875" stroke-linecap="round" stroke-linejoin="round" stroke-miterlimit="10" fill="none"/></g><g><path d="M2201.5 7227.5 2551.58 6296.71 2901.6 6002.7 3251.61 5995.7 3601.62 6002.7 3951.63 5976.5 4302.64 5995.7 4652.5 6078.7" stroke="#4EA72E" stroke-width="6.875" stroke-linecap="round" stroke-linejoin="round" stroke-miterlimit="10" stroke-dasharray="20.625 27.5" fill="none"/></g><g><path d="M2901.5 7218.5 3251.61 6346.71 3601.62 6081.7 3951.63 6078.7 4302.64 6068.5 4652.5 6071.7" stroke="#4EA72E" stroke-width="6.875" stroke-linecap="round" stroke-linejoin="round" stroke-miterlimit="10" stroke-dasharray="20.625 27.5 0 27.5" fill="none"/></g><g><path d="M3601.5 7338.5 3951.63 6445.71 4302.64 6174.7 4652.5 6082.5" stroke="#4EA72E" stroke-width="6.875" stroke-linecap="round" stroke-linejoin="round" stroke-miterlimit="10" stroke-dasharray="48.125 27.5" fill="none"/></g><g><path d="M4302 7542 4652 6469" stroke="#4EA72E" stroke-width="8.02083" stroke-linecap="round" stroke-linejoin="round" stroke-miterlimit="10" stroke-dasharray="56.1458 32.0833 0 32.0833" fill="none"/></g><g><path d="M1850.5 6342.71 2201.57 6333.5 2551.58 6339.71 2901.6 6359.71 3251.61 6359.71 3601.62 6362.71 3951.63 6402.71 4302.64 6415.71 4652.5 6458.5" stroke="#A02B93" stroke-width="6.875" stroke-linecap="round" stroke-linejoin="round" stroke-miterlimit="10" fill="none"/></g><g><path d="M2201.5 7428.5 2551.58 6465.71 2901.6 6164.7 3251.61 6121.7 3601.62 6131.7 3951.63 6111.5 4302.64 6131.7 4652.5 6154.7" stroke="#A02B93" stroke-width="6.875" stroke-linecap="round" stroke-linejoin="round" stroke-miterlimit="10" stroke-dasharray="20.625 27.5" fill="none"/></g><g><path d="M2901.5 7528.5 3251.61 6511.71 3601.62 6372.71 3951.63 6134.7 4302.64 6134.7 4652.5 6131.5" stroke="#A02B93" stroke-width="6.875" stroke-linecap="round" stroke-linejoin="round" stroke-miterlimit="10" stroke-dasharray="20.625 27.5 0 27.5" fill="none"/></g><g><path d="M3601.5 7598.5 3951.63 6518.71 4302.64 6425.71 4652.5 6174.5" stroke="#A02B93" stroke-width="6.875" stroke-linecap="round" stroke-linejoin="round" stroke-miterlimit="10" stroke-dasharray="48.125 27.5" fill="none"/></g><g><path d="M4302.5 7613.5 4652.5 6548.5" stroke="#A02B93" stroke-width="6.875" stroke-linecap="round" stroke-linejoin="round" stroke-miterlimit="10" stroke-dasharray="48.125 27.5 0 27.5" fill="none"/></g><g><path d="M1850.5 6422.5 2201.57 6415.71 2551.58 6412.71 2901.6 6412.71 3251.61 6412.71 3601.62 6409.71 3951.63 6399.5 4302.64 6405.71 4652.5 6399.5" stroke="#E97132" stroke-width="6.875" stroke-linecap="round" stroke-linejoin="round" stroke-miterlimit="10" fill="none"/></g><g><path d="M1850.5 6392.5 2201.57 6389.71 2551.58 6382.71 2901.6 6379.71 3251.61 6375.71 3601.62 6375.71 3951.63 6369.71 4302.64 6359.71 4652.5 6353.5" stroke="#FF5050" stroke-width="9.16667" stroke-linecap="round" stroke-linejoin="round" stroke-miterlimit="10" fill="none"/></g><g><path d="M1851 6317 2201.07 6300.21 2551.08 6277.21 2901.1 6274.21 3252.11 6274.21 3602.12 6260.21 3952.13 6260.21 4302.14 6264.21 4652 6257" stroke="#46B1E1" stroke-width="8.02083" stroke-linecap="round" stroke-linejoin="round" stroke-miterlimit="10" fill="none"/></g><g><text fill="#595959" font-family="Aptos Narrow,Aptos Narrow_MSFontService,sans-serif" font-weight="400" font-stretch="semi-condensed" font-size="41" transform="matrix(1 0 0 1 1595.99 7938)">30</text></g><g><text fill="#595959" font-family="Aptos Narrow,Aptos Narrow_MSFontService,sans-serif" font-weight="400" font-stretch="semi-condensed" font-size="41" transform="matrix(1 0 0 1 1595.99 7773)">40</text></g><g><text fill="#595959" font-family="Aptos Narrow,Aptos Narrow_MSFontService,sans-serif" font-weight="400" font-stretch="semi-condensed" font-size="41" transform="matrix(1 0 0 1 1595.99 7607)">50</text></g><g><text fill="#595959" font-family="Aptos Narrow,Aptos Narrow_MSFontService,sans-serif" font-weight="400" font-stretch="semi-condensed" font-size="41" transform="matrix(1 0 0 1 1595.99 7442)">60</text></g><g><text fill="#595959" font-family="Aptos Narrow,Aptos Narrow_MSFontService,sans-serif" font-weight="400" font-stretch="semi-condensed" font-size="41" transform="matrix(1 0 0 1 1595.99 7277)">70</text></g><g><text fill="#595959" font-family="Aptos Narrow,Aptos Narrow_MSFontService,sans-serif" font-weight="400" font-stretch="semi-condensed" font-size="41" transform="matrix(1 0 0 1 1595.99 7112)">80</text></g><g><text fill="#595959" font-family="Aptos Narrow,Aptos Narrow_MSFontService,sans-serif" font-weight="400" font-stretch="semi-condensed" font-size="41" transform="matrix(1 0 0 1 1595.99 6946)">90</text></g><g><text fill="#595959" font-family="Aptos Narrow,Aptos Narrow_MSFontService,sans-serif" font-weight="400" font-stretch="semi-condensed" font-size="41" transform="matrix(1 0 0 1 1575.09 6781)">100</text></g><g><text fill="#595959" font-family="Aptos Narrow,Aptos Narrow_MSFontService,sans-serif" font-weight="400" font-stretch="semi-condensed" font-size="41" transform="matrix(1 0 0 1 1575.09 6616)">110</text></g><g><text fill="#595959" font-family="Aptos Narrow,Aptos Narrow_MSFontService,sans-serif" font-weight="400" font-stretch="semi-condensed" font-size="41" transform="matrix(1 0 0 1 1575.09 6451)">120</text></g><g><text fill="#595959" font-family="Aptos Narrow,Aptos Narrow_MSFontService,sans-serif" font-weight="400" font-stretch="semi-condensed" font-size="41" transform="matrix(1 0 0 1 1575.09 6285)">130</text></g><g><text fill="#595959" font-family="Aptos Narrow,Aptos Narrow_MSFontService,sans-serif" font-weight="400" font-stretch="semi-condensed" font-size="41" transform="matrix(1 0 0 1 1575.09 6120)">140</text></g><g><text fill="#595959" font-family="Aptos Narrow,Aptos Narrow_MSFontService,sans-serif" font-weight="400" font-stretch="semi-condensed" font-size="41" transform="matrix(1 0 0 1 1575.09 5955)">150</text></g><g><text fill="#595959" font-family="Aptos Narrow,Aptos Narrow_MSFontService,sans-serif" font-weight="400" font-stretch="semi-condensed" font-size="41" transform="matrix(1 0 0 1 1830.06 7991)">20</text></g><g><text fill="#595959" font-family="Aptos Narrow,Aptos Narrow_MSFontService,sans-serif" font-weight="400" font-stretch="semi-condensed" font-size="41" transform="matrix(1 0 0 1 2180.23 7991)">40</text></g><g><text fill="#595959" font-family="Aptos Narrow,Aptos Narrow_MSFontService,sans-serif" font-weight="400" font-stretch="semi-condensed" font-size="41" transform="matrix(1 0 0 1 2530.41 7991)">60</text></g><g><text fill="#595959" font-family="Aptos Narrow,Aptos Narrow_MSFontService,sans-serif" font-weight="400" font-stretch="semi-condensed" font-size="41" transform="matrix(1 0 0 1 2880.59 7991)">80</text></g><g><text fill="#595959" font-family="Aptos Narrow,Aptos Narrow_MSFontService,sans-serif" font-weight="400" font-stretch="semi-condensed" font-size="41" transform="matrix(1 0 0 1 3220.31 7991)">100</text></g><g><text fill="#595959" font-family="Aptos Narrow,Aptos Narrow_MSFontService,sans-serif" font-weight="400" font-stretch="semi-condensed" font-size="41" transform="matrix(1 0 0 1 3570.49 7991)">120</text></g><g><text fill="#595959" font-family="Aptos Narrow,Aptos Narrow_MSFontService,sans-serif" font-weight="400" font-stretch="semi-condensed" font-size="41" transform="matrix(1 0 0 1 3920.67 7991)">140</text></g><g><text fill="#595959" font-family="Aptos Narrow,Aptos Narrow_MSFontService,sans-serif" font-weight="400" font-stretch="semi-condensed" font-size="41" transform="matrix(1 0 0 1 4270.85 7991)">160</text></g><g><text fill="#595959" font-family="Aptos Narrow,Aptos Narrow_MSFontService,sans-serif" font-weight="400" font-stretch="semi-condensed" font-size="41" transform="matrix(1 0 0 1 4621.02 7991)">180</text></g><g><text fill="#595959" font-family="Aptos Narrow,Aptos Narrow_MSFontService,sans-serif" font-weight="400" font-stretch="semi-condensed" font-size="64" transform="matrix(6.12323e-17 -1 1 6.12323e-17 1543 7114)">Memoria (MB)</text></g><g><text fill="#595959" font-family="Aptos Narrow,Aptos Narrow_MSFontService,sans-serif" font-weight="400" font-stretch="semi-condensed" font-size="64" transform="matrix(1 0 0 1 2903.84 8117)">Tiempo desde el inicio de la iteración (s)</text></g><g><text fill="#595959" font-family="Aptos Narrow,Aptos Narrow_MSFontService,sans-serif" font-weight="400" font-stretch="semi-condensed" font-size="92" transform="matrix(1 0 0 1 2663.76 5855)">Consumo de Memoria por Réplica</text></g><g><path d="M4902.5 6364.5 5018.5 6364.5" stroke="#747474" stroke-width="6.875" stroke-linecap="round" stroke-linejoin="round" stroke-miterlimit="10" fill="none" fill-rule="evenodd"/></g><g><text fill="#595959" font-family="Aptos Narrow,Aptos Narrow_MSFontService,sans-serif" font-weight="400" font-stretch="semi-condensed" font-size="41" transform="matrix(1 0 0 1 5030.85 6376)">JPG-0-1</text></g><g><path d="M4902.5 6442.5 5018.5 6442.5" stroke="#747474" stroke-width="6.875" stroke-linecap="round" stroke-linejoin="round" stroke-miterlimit="10" stroke-dasharray="20.625 27.5" fill="none" fill-rule="evenodd"/></g><g><text fill="#595959" font-family="Aptos Narrow,Aptos Narrow_MSFontService,sans-serif" font-weight="400" font-stretch="semi-condensed" font-size="41" transform="matrix(1 0 0 1 5030.85 6454)">JPG-0-2</text></g><g><path d="M4902.5 6519.5 5018.5 6519.5" stroke="#747474" stroke-width="6.875" stroke-linecap="round" stroke-linejoin="round" stroke-miterlimit="10" stroke-dasharray="20.625 27.5 0 27.5" fill="none" fill-rule="evenodd"/></g><g><text fill="#595959" font-family="Aptos Narrow,Aptos Narrow_MSFontService,sans-serif" font-weight="400" font-stretch="semi-condensed" font-size="41" transform="matrix(1 0 0 1 5030.85 6531)">JPG-0-3</text></g><g><path d="M4902.5 6596.5 5018.5 6596.5" stroke="#747474" stroke-width="6.875" stroke-linecap="round" stroke-linejoin="round" stroke-miterlimit="10" stroke-dasharray="48.125 27.5" fill="none" fill-rule="evenodd"/></g><g><text fill="#595959" font-family="Aptos Narrow,Aptos Narrow_MSFontService,sans-serif" font-weight="400" font-stretch="semi-condensed" font-size="41" transform="matrix(1 0 0 1 5030.85 6608)">JPG-0-4</text></g><g><path d="M4902.5 6674.5 5018.5 6674.5" stroke="#747474" stroke-width="6.875" stroke-linecap="round" stroke-linejoin="round" stroke-miterlimit="10" stroke-dasharray="48.125 27.5 0 27.5" fill="none" fill-rule="evenodd"/></g><g><text fill="#595959" font-family="Aptos Narrow,Aptos Narrow_MSFontService,sans-serif" font-weight="400" font-stretch="semi-condensed" font-size="41" transform="matrix(1 0 0 1 5030.85 6686)">JPG-0-5</text></g><g><path d="M4902.5 6751.5 5018.5 6751.5" stroke="#4EA72E" stroke-width="6.875" stroke-linecap="round" stroke-linejoin="round" stroke-miterlimit="10" fill="none" fill-rule="evenodd"/></g><g><text fill="#595959" font-family="Aptos Narrow,Aptos Narrow_MSFontService,sans-serif" font-weight="400" font-stretch="semi-condensed" font-size="41" transform="matrix(1 0 0 1 5030.85 6763)">JPG-1-1</text></g><g><path d="M4902.5 6828.5 5018.5 6828.5" stroke="#4EA72E" stroke-width="6.875" stroke-linecap="round" stroke-linejoin="round" stroke-miterlimit="10" stroke-dasharray="20.625 27.5" fill="none" fill-rule="evenodd"/></g><g><text fill="#595959" font-family="Aptos Narrow,Aptos Narrow_MSFontService,sans-serif" font-weight="400" font-stretch="semi-condensed" font-size="41" transform="matrix(1 0 0 1 5030.85 6840)">JPG-1-2</text></g><g><path d="M4902.5 6906.5 5018.5 6906.5" stroke="#4EA72E" stroke-width="6.875" stroke-linecap="round" stroke-linejoin="round" stroke-miterlimit="10" stroke-dasharray="20.625 27.5 0 27.5" fill="none" fill-rule="evenodd"/></g><g><text fill="#595959" font-family="Aptos Narrow,Aptos Narrow_MSFontService,sans-serif" font-weight="400" font-stretch="semi-condensed" font-size="41" transform="matrix(1 0 0 1 5030.85 6918)">JPG-1-3</text></g><g><path d="M4902.5 6983.5 5018.5 6983.5" stroke="#4EA72E" stroke-width="6.875" stroke-linecap="round" stroke-linejoin="round" stroke-miterlimit="10" stroke-dasharray="48.125 27.5" fill="none" fill-rule="evenodd"/></g><g><text fill="#595959" font-family="Aptos Narrow,Aptos Narrow_MSFontService,sans-serif" font-weight="400" font-stretch="semi-condensed" font-size="41" transform="matrix(1 0 0 1 5030.85 6995)">JPG-1-4</text></g><g><path d="M4903 7061 5018 7061" stroke="#4EA72E" stroke-width="8.02083" stroke-linecap="round" stroke-linejoin="round" stroke-miterlimit="10" stroke-dasharray="56.1458 32.0833 0 32.0833" fill="none" fill-rule="evenodd"/></g><g><text fill="#595959" font-family="Aptos Narrow,Aptos Narrow_MSFontService,sans-serif" font-weight="400" font-stretch="semi-condensed" font-size="41" transform="matrix(1 0 0 1 5030.85 7073)">JPG-1-5</text></g><g><path d="M4902.5 7138.5 5018.5 7138.5" stroke="#A02B93" stroke-width="6.875" stroke-linecap="round" stroke-linejoin="round" stroke-miterlimit="10" fill="none" fill-rule="evenodd"/></g><g><text fill="#595959" font-family="Aptos Narrow,Aptos Narrow_MSFontService,sans-serif" font-weight="400" font-stretch="semi-condensed" font-size="41" transform="matrix(1 0 0 1 5030.85 7150)">JPG-2-1</text></g><g><path d="M4902.5 7215.5 5018.5 7215.5" stroke="#A02B93" stroke-width="6.875" stroke-linecap="round" stroke-linejoin="round" stroke-miterlimit="10" stroke-dasharray="20.625 27.5" fill="none" fill-rule="evenodd"/></g><g><text fill="#595959" font-family="Aptos Narrow,Aptos Narrow_MSFontService,sans-serif" font-weight="400" font-stretch="semi-condensed" font-size="41" transform="matrix(1 0 0 1 5030.85 7227)">JPG-2-2</text></g><g><path d="M4902.5 7292.5 5018.5 7292.5" stroke="#A02B93" stroke-width="6.875" stroke-linecap="round" stroke-linejoin="round" stroke-miterlimit="10" stroke-dasharray="20.625 27.5 0 27.5" fill="none" fill-rule="evenodd"/></g><g><text fill="#595959" font-family="Aptos Narrow,Aptos Narrow_MSFontService,sans-serif" font-weight="400" font-stretch="semi-condensed" font-size="41" transform="matrix(1 0 0 1 5030.85 7305)">JPG-2-3</text></g><g><path d="M4902.5 7370.5 5018.5 7370.5" stroke="#A02B93" stroke-width="6.875" stroke-linecap="round" stroke-linejoin="round" stroke-miterlimit="10" stroke-dasharray="48.125 27.5" fill="none" fill-rule="evenodd"/></g><g><text fill="#595959" font-family="Aptos Narrow,Aptos Narrow_MSFontService,sans-serif" font-weight="400" font-stretch="semi-condensed" font-size="41" transform="matrix(1 0 0 1 5030.85 7382)">JPG-2-4</text></g><g><path d="M4902.5 7447.5 5018.5 7447.5" stroke="#A02B93" stroke-width="6.875" stroke-linecap="round" stroke-linejoin="round" stroke-miterlimit="10" stroke-dasharray="48.125 27.5 0 27.5" fill="none" fill-rule="evenodd"/></g><g><text fill="#595959" font-family="Aptos Narrow,Aptos Narrow_MSFontService,sans-serif" font-weight="400" font-stretch="semi-condensed" font-size="41" transform="matrix(1 0 0 1 5030.85 7459)">JPG-2-5</text></g><g><path d="M4902.5 7525.5 5018.5 7525.5" stroke="#E97132" stroke-width="6.875" stroke-linecap="round" stroke-linejoin="round" stroke-miterlimit="10" fill="none" fill-rule="evenodd"/></g><g><text fill="#595959" font-family="Aptos Narrow,Aptos Narrow_MSFontService,sans-serif" font-weight="400" font-stretch="semi-condensed" font-size="41" transform="matrix(1 0 0 1 5030.85 7537)">JPG-3-1</text></g><g><path d="M4902.5 7602.5 5018.5 7602.5" stroke="#FF5050" stroke-width="9.16667" stroke-linecap="round" stroke-linejoin="round" stroke-miterlimit="10" fill="none" fill-rule="evenodd"/></g><g><text fill="#595959" font-family="Aptos Narrow,Aptos Narrow_MSFontService,sans-serif" font-weight="400" font-stretch="semi-condensed" font-size="41" transform="matrix(1 0 0 1 5030.85 7614)">JPG-4-1</text></g><g><path d="M4903 7680 5018 7680" stroke="#46B1E1" stroke-width="8.02083" stroke-linecap="round" stroke-linejoin="round" stroke-miterlimit="10" fill="none" fill-rule="evenodd"/></g><g><text fill="#595959" font-family="Aptos Narrow,Aptos Narrow_MSFontService,sans-serif" font-weight="400" font-stretch="semi-condensed" font-size="41" transform="matrix(1 0 0 1 5030.85 7691)">JPG-5-1</text></g><rect x="1426.5" y="5740.5" width="3779" height="2412" stroke="#D9D9D9" stroke-width="3.4375" stroke-linejoin="round" stroke-miterlimit="10" fill="none"/></g></svg>