<svg width="2604" height="1447" xmlns="http://www.w3.org/2000/svg" xmlns:xlink="http://www.w3.org/1999/xlink" xml:space="preserve" overflow="hidden"><defs><clipPath id="clip0"><rect x="780" y="1679" width="2604" height="1447"/></clipPath></defs><g clip-path="url(#clip0)" transform="translate(-780 -1679)"><rect x="781" y="1680" width="2601" height="1444" fill="#FFFFFF"/><g><path d="M890.5 2838.59 3024.5 2838.59M890.5 2658.59 3024.5 2658.59M890.5 2478.58 3024.5 2478.58M890.5 2299.58 3024.5 2299.58M890.5 2119.57 3024.5 2119.57M890.5 1940.5 3024.5 1940.5" stroke="#D9D9D9" stroke-width="3.4375" stroke-linejoin="round" stroke-miterlimit="10" fill="none"/></g><g><path d="M0 0 0.000360892 1168" stroke="#BFBFBF" stroke-width="3.4375" stroke-linejoin="round" stroke-miterlimit="10" fill="none" fill-rule="evenodd" transform="matrix(1 0 0 -1 890.5 3018.5)"/></g><g><path d="M890.529 3018.5 900.5 3018.5M890.529 2982.6 900.5 2982.6M890.529 2946.6 900.5 2946.6M890.529 2910.6 900.5 2910.6M890.529 2874.59 900.5 2874.59M890.529 2838.59 900.5 2838.59M890.529 2802.59 900.5 2802.59M890.529 2766.59 900.5 2766.59M890.529 2730.59 900.5 2730.59M890.529 2694.59 900.5 2694.59M890.529 2658.59 900.5 2658.59M890.529 2622.59 900.5 2622.59M890.529 2586.58 900.5 2586.58M890.529 2550.58 900.5 2550.58M890.529 2514.58 900.5 2514.58M890.529 2478.58 900.5 2478.58M890.529 2443.58 900.5 2443.58M890.529 2407.58 900.5 2407.58M890.529 2371.58 900.5 2371.58M890.529 2335.58 900.5 2335.58M890.529 2299.58 900.5 2299.58M890.529 2263.57 900.5 2263.57M890.529 2227.57 900.5 2227.57M890.529 2191.57 900.5 2191.57M890.529 2155.57 900.5 2155.57M890.529 2119.57 900.5 2119.57M890.529 2083.57 900.5 2083.57M890.529 2047.57 900.5 2047.57M890.529 2011.57 900.5 2011.57M890.529 1975.56 900.5 1975.56M890.529 1940.56 900.5 1940.56M890.529 1904.56 900.5 1904.56M890.529 1868.5 900.5 1868.5M877.5 3018.5 890.529 3018.5M877.5 2838.59 890.529 2838.59M877.5 2658.59 890.529 2658.59M877.5 2478.58 890.529 2478.58M877.5 2299.58 890.529 2299.58M877.5 2119.57 890.529 2119.57M877.5 1940.56 890.529 1940.56" stroke="#BFBFBF" stroke-width="3.4375" stroke-linejoin="round" stroke-miterlimit="10" fill="none"/></g><g><path d="M890.5 3018.5 3024.5 3018.5" stroke="#D9D9D9" stroke-width="3.4375" stroke-linejoin="round" stroke-miterlimit="10" fill="none" fill-rule="evenodd"/></g><g><path d="M1009.53 3008.5 1009.53 3017.6M1246.54 3008.5 1246.54 3017.6M1483.55 3008.5 1483.55 3017.6M1720.56 3008.5 1720.56 3017.6M1957.56 3008.5 1957.56 3017.6M2194.57 3008.5 2194.57 3017.6M2431.58 3008.5 2431.58 3017.6M2668.59 3008.5 2668.59 3017.6M2905.6 3008.5 2905.6 3017.6M3024.5 3008.5 3024.5 3017.6M890.5 3017.6 890.5 3030.5M1127.54 3017.6 1127.54 3030.5M1364.54 3017.6 1364.54 3030.5M1601.55 3017.6 1601.55 3030.5M1838.56 3017.6 1838.56 3030.5M2075.57 3017.6 2075.57 3030.5M2312.58 3017.6 2312.58 3030.5M2549.58 3017.6 2549.58 3030.5M2786.59 3017.6 2786.59 3030.5M3024.5 3017.6 3024.5 3030.5" stroke="#D9D9D9" stroke-width="3.4375" stroke-linejoin="round" stroke-miterlimit="10" fill="none"/></g><g><path d="M1009.5 2973.5 1246.54 2977.6 1483.55 2984.6 1720.56 2986.6 1957.56 2988.6 2194.57 2993.6 2431.58 2994.6 2668.59 2995.6 2905.5 2997.5" stroke="#747474" stroke-width="6.875" stroke-linecap="round" stroke-linejoin="round" stroke-miterlimit="10" fill="none"/></g><g><path d="M1009.5 2978.5 1246.54 2985.6 1483.55 2985.6 1720.56 2988.6 1957.56 2988.6 2194.57 2988.6 2431.58 2989.5 2668.59 2989.6 2905.5 2988.6" stroke="#747474" stroke-width="6.875" stroke-linecap="round" stroke-linejoin="round" stroke-miterlimit="10" stroke-dasharray="0 13.75" fill="none"/></g><g><path d="M1009.5 2900.6 1246.54 2883.5 1483.55 2918.6 1720.56 2937.6 1957.56 2939.6 2194.57 2939.6 2431.58 2952.6 2668.59 2954.5 2905.5 2953.6" stroke="#4EA72E" stroke-width="6.875" stroke-linecap="round" stroke-linejoin="round" stroke-miterlimit="10" fill="none"/></g><g><path d="M1009.5 2898.6 1246.54 2921.5 1483.55 2903.6 1720.56 2894.5 1957.56 2899.6 2194.57 2905.6 2431.58 2900.6 2668.59 2906.6 2905.5 2904.6" stroke="#4EA72E" stroke-width="6.875" stroke-linecap="round" stroke-linejoin="round" stroke-miterlimit="10" stroke-dasharray="0 13.75" fill="none"/></g><g><path d="M1009.5 2837.59 1246.54 2842.59 1483.55 2831.5 1720.56 2832.59 1957.56 2864.59 2194.57 2866.59 2431.58 2884.59 2668.59 2889.59 2905.5 2908.5" stroke="#A02B93" stroke-width="6.875" stroke-linecap="round" stroke-linejoin="round" stroke-miterlimit="10" fill="none"/></g><g><path d="M1009.5 2862.5 1246.54 2772.59 1483.55 2758.59 1720.56 2749.59 1957.56 2752.59 2194.57 2752.59 2431.58 2751.59 2668.59 2744.5 2905.5 2767.59" stroke="#A02B93" stroke-width="6.875" stroke-linecap="round" stroke-linejoin="round" stroke-miterlimit="10" stroke-dasharray="0 13.75" fill="none"/></g><g><path d="M1009.5 2823.5 1246.54 2668.59 1483.55 2680.59 1720.56 2674.59 1957.56 2663.5 2194.57 2669.59 2431.58 2681.59 2668.59 2669.59 2905.5 2681.59" stroke="#E97132" stroke-width="6.875" stroke-linecap="round" stroke-linejoin="round" stroke-miterlimit="10" fill="none"/></g><g><path d="M1009.5 2703.59 1246.54 2675.59 1483.55 2974.5 1720.56 2951.6 1957.56 2315.5 2194.57 2792.59 2431.58 2521.58 2668.59 2896.6 2905.5 2755.59" stroke="#E97132" stroke-width="6.875" stroke-linecap="round" stroke-linejoin="round" stroke-miterlimit="10" fill="none"/></g><g><path d="M1009.5 2708.5 1246.54 2504.58 1483.55 2621.59 1720.56 2591.59 1957.56 2561.58 2194.57 2556.58 2431.58 2428.58 2668.59 2454.58 2905.5 2297.5" stroke="#FF5050" stroke-width="6.875" stroke-linecap="round" stroke-linejoin="round" stroke-miterlimit="10" fill="none"/></g><g><path d="M1009.5 2622.59 1246.54 2569.58 1483.55 2648.59 1720.56 2666.5 1957.56 2542.58 2194.57 2600.59 2431.58 2433.58 2668.59 2446.58 2905.5 1933.5" stroke="#FF5050" stroke-width="6.875" stroke-linecap="round" stroke-linejoin="round" stroke-miterlimit="10" stroke-dasharray="0 13.75" fill="none"/></g><g><path d="M1009.5 2687.5 1246.54 2428.58 1483.55 2513.58 1720.56 2413.58 1957.56 2355.5 2194.57 2391.58 2431.58 2415.58 2668.59 2359.58 2905.5 2369.58" stroke="#0F9ED5" stroke-width="6.875" stroke-linecap="round" stroke-linejoin="round" stroke-miterlimit="10" fill="none"/></g><g><path d="M1009.5 2775.5 1246.54 2596.59 1483.55 2454.58 1720.56 2461.58 1957.56 2430.58 2194.57 2464.58 2431.58 2455.58 2668.59 2482.58 2905.5 2398.5" stroke="#0F9ED5" stroke-width="6.875" stroke-linecap="round" stroke-linejoin="round" stroke-miterlimit="10" stroke-dasharray="0 13.75" fill="none"/></g><g><text fill="#595959" font-family="Aptos Narrow,Aptos Narrow_MSFontService,sans-serif" font-weight="400" font-stretch="semi-condensed" font-size="41" transform="matrix(1 0 0 1 831.692 3030)">0</text></g><g><text fill="#595959" font-family="Aptos Narrow,Aptos Narrow_MSFontService,sans-serif" font-weight="400" font-stretch="semi-condensed" font-size="41" transform="matrix(1 0 0 1 831.692 2850)">2</text></g><g><text fill="#595959" font-family="Aptos Narrow,Aptos Narrow_MSFontService,sans-serif" font-weight="400" font-stretch="semi-condensed" font-size="41" transform="matrix(1 0 0 1 831.692 2670)">4</text></g><g><text fill="#595959" font-family="Aptos Narrow,Aptos Narrow_MSFontService,sans-serif" font-weight="400" font-stretch="semi-condensed" font-size="41" transform="matrix(1 0 0 1 831.692 2491)">6</text></g><g><text fill="#595959" font-family="Aptos Narrow,Aptos Narrow_MSFontService,sans-serif" font-weight="400" font-stretch="semi-condensed" font-size="41" transform="matrix(1 0 0 1 831.692 2311)">8</text></g><g><text fill="#595959" font-family="Aptos Narrow,Aptos Narrow_MSFontService,sans-serif" font-weight="400" font-stretch="semi-condensed" font-size="41" transform="matrix(1 0 0 1 810.792 2131)">10</text></g><g><text fill="#595959" font-family="Aptos Narrow,Aptos Narrow_MSFontService,sans-serif" font-weight="400" font-stretch="semi-condensed" font-size="41" transform="matrix(1 0 0 1 810.792 1952)">12</text></g><g><text fill="#595959" font-family="Aptos Narrow,Aptos Narrow_MSFontService,sans-serif" font-weight="400" font-stretch="semi-condensed" font-size="41" transform="matrix(1 0 0 1 988.3 3083)">20</text></g><g><text fill="#595959" font-family="Aptos Narrow,Aptos Narrow_MSFontService,sans-serif" font-weight="400" font-stretch="semi-condensed" font-size="41" transform="matrix(1 0 0 1 1225.35 3083)">40</text></g><g><text fill="#595959" font-family="Aptos Narrow,Aptos Narrow_MSFontService,sans-serif" font-weight="400" font-stretch="semi-condensed" font-size="41" transform="matrix(1 0 0 1 1462.4 3083)">60</text></g><g><text fill="#595959" font-family="Aptos Narrow,Aptos Narrow_MSFontService,sans-serif" font-weight="400" font-stretch="semi-condensed" font-size="41" transform="matrix(1 0 0 1 1699.45 3083)">80</text></g><g><text fill="#595959" font-family="Aptos Narrow,Aptos Narrow_MSFontService,sans-serif" font-weight="400" font-stretch="semi-condensed" font-size="41" transform="matrix(1 0 0 1 1926.05 3083)">100</text></g><g><text fill="#595959" font-family="Aptos Narrow,Aptos Narrow_MSFontService,sans-serif" font-weight="400" font-stretch="semi-condensed" font-size="41" transform="matrix(1 0 0 1 2163.1 3083)">120</text></g><g><text fill="#595959" font-family="Aptos Narrow,Aptos Narrow_MSFontService,sans-serif" font-weight="400" font-stretch="semi-condensed" font-size="41" transform="matrix(1 0 0 1 2400.15 3083)">140</text></g><g><text fill="#595959" font-family="Aptos Narrow,Aptos Narrow_MSFontService,sans-serif" font-weight="400" font-stretch="semi-condensed" font-size="41" transform="matrix(1 0 0 1 2637.2 3083)">160</text></g><g><text fill="#595959" font-family="Aptos Narrow,Aptos Narrow_MSFontService,sans-serif" font-weight="400" font-stretch="semi-condensed" font-size="41" transform="matrix(1 0 0 1 2874.25 3083)">180</text></g><g><text fill="#595959" font-family="Aptos Narrow,Aptos Narrow_MSFontService,sans-serif" font-weight="400" font-stretch="semi-condensed" font-size="64" transform="matrix(1 0 0 1 1422.16 1775)">Tiempo de procesamiento medio con respuesta 200</text></g><g><path d="M3099.5 2036.5 3214.5 2036.5" stroke="#747474" stroke-width="6.875" stroke-linecap="round" stroke-linejoin="round" stroke-miterlimit="10" fill="none" fill-rule="evenodd"/></g><g><text fill="#595959" font-family="Aptos Narrow,Aptos Narrow_MSFontService,sans-serif" font-weight="400" font-stretch="semi-condensed" font-size="41" transform="matrix(1 0 0 1 3227.51 2048)">JPG-0</text></g><g><path d="M3099.5 2113.5 3214.5 2113.5" stroke="#747474" stroke-width="6.875" stroke-linecap="round" stroke-linejoin="round" stroke-miterlimit="10" stroke-dasharray="0 13.75" fill="none" fill-rule="evenodd"/></g><g><text fill="#595959" font-family="Aptos Narrow,Aptos Narrow_MSFontService,sans-serif" font-weight="400" font-stretch="semi-condensed" font-size="41" transform="matrix(1 0 0 1 3227.51 2125)">PNG-0</text></g><g><path d="M3099.5 2191.5 3214.5 2191.5" stroke="#4EA72E" stroke-width="6.875" stroke-linecap="round" stroke-linejoin="round" stroke-miterlimit="10" fill="none" fill-rule="evenodd"/></g><g><text fill="#595959" font-family="Aptos Narrow,Aptos Narrow_MSFontService,sans-serif" font-weight="400" font-stretch="semi-condensed" font-size="41" transform="matrix(1 0 0 1 3227.51 2203)">JPG-1</text></g><g><path d="M3099.5 2268.5 3214.5 2268.5" stroke="#4EA72E" stroke-width="6.875" stroke-linecap="round" stroke-linejoin="round" stroke-miterlimit="10" stroke-dasharray="0 13.75" fill="none" fill-rule="evenodd"/></g><g><text fill="#595959" font-family="Aptos Narrow,Aptos Narrow_MSFontService,sans-serif" font-weight="400" font-stretch="semi-condensed" font-size="41" transform="matrix(1 0 0 1 3227.51 2280)">PNG-1</text></g><g><path d="M3099.5 2345.5 3214.5 2345.5" stroke="#A02B93" stroke-width="6.875" stroke-linecap="round" stroke-linejoin="round" stroke-miterlimit="10" fill="none" fill-rule="evenodd"/></g><g><text fill="#595959" font-family="Aptos Narrow,Aptos Narrow_MSFontService,sans-serif" font-weight="400" font-stretch="semi-condensed" font-size="41" transform="matrix(1 0 0 1 3227.51 2357)">JPG-2</text></g><g><path d="M3099.5 2423.5 3214.5 2423.5" stroke="#A02B93" stroke-width="6.875" stroke-linecap="round" stroke-linejoin="round" stroke-miterlimit="10" stroke-dasharray="0 13.75" fill="none" fill-rule="evenodd"/></g><g><text fill="#595959" font-family="Aptos Narrow,Aptos Narrow_MSFontService,sans-serif" font-weight="400" font-stretch="semi-condensed" font-size="41" transform="matrix(1 0 0 1 3227.51 2435)">PNG-2</text></g><g><path d="M3099.5 2500.5 3214.5 2500.5" stroke="#E97132" stroke-width="6.875" stroke-linecap="round" stroke-linejoin="round" stroke-miterlimit="10" fill="none" fill-rule="evenodd"/></g><g><text fill="#595959" font-family="Aptos Narrow,Aptos Narrow_MSFontService,sans-serif" font-weight="400" font-stretch="semi-condensed" font-size="41" transform="matrix(1 0 0 1 3227.51 2512)">JPG-3</text></g><g><path d="M3099.5 2577.5 3214.5 2577.5" stroke="#E97132" stroke-width="6.875" stroke-linecap="round" stroke-linejoin="round" stroke-miterlimit="10" fill="none" fill-rule="evenodd"/></g><g><text fill="#595959" font-family="Aptos Narrow,Aptos Narrow_MSFontService,sans-serif" font-weight="400" font-stretch="semi-condensed" font-size="41" transform="matrix(1 0 0 1 3227.51 2589)">PNG-3</text></g><g><path d="M3099.5 2655.5 3214.5 2655.5" stroke="#FF5050" stroke-width="6.875" stroke-linecap="round" stroke-linejoin="round" stroke-miterlimit="10" fill="none" fill-rule="evenodd"/></g><g><text fill="#595959" font-family="Aptos Narrow,Aptos Narrow_MSFontService,sans-serif" font-weight="400" font-stretch="semi-condensed" font-size="41" transform="matrix(1 0 0 1 3227.51 2667)">JPG-4</text></g><g><path d="M3099.5 2732.5 3214.5 2732.5" stroke="#FF5050" stroke-width="6.875" stroke-linecap="round" stroke-linejoin="round" stroke-miterlimit="10" stroke-dasharray="0 13.75" fill="none" fill-rule="evenodd"/></g><g><text fill="#595959" font-family="Aptos Narrow,Aptos Narrow_MSFontService,sans-serif" font-weight="400" font-stretch="semi-condensed" font-size="41" transform="matrix(1 0 0 1 3227.51 2744)">PNG-4</text></g><g><path d="M3099.5 2809.5 3214.5 2809.5" stroke="#0F9ED5" stroke-width="6.875" stroke-linecap="round" stroke-linejoin="round" stroke-miterlimit="10" fill="none" fill-rule="evenodd"/></g><g><text fill="#595959" font-family="Aptos Narrow,Aptos Narrow_MSFontService,sans-serif" font-weight="400" font-stretch="semi-condensed" font-size="41" transform="matrix(1 0 0 1 3227.51 2822)">JPG-5</text></g><g><path d="M3099.5 2887.5 3214.5 2887.5" stroke="#0F9ED5" stroke-width="6.875" stroke-linecap="round" stroke-linejoin="round" stroke-miterlimit="10" stroke-dasharray="0 13.75" fill="none" fill-rule="evenodd"/></g><g><text fill="#595959" font-family="Aptos Narrow,Aptos Narrow_MSFontService,sans-serif" font-weight="400" font-stretch="semi-condensed" font-size="41" transform="matrix(1 0 0 1 3227.51 2899)">PNG-5</text></g><rect x="781.5" y="1680.5" width="2601" height="1444" stroke="#D9D9D9" stroke-width="3.4375" stroke-linejoin="round" stroke-miterlimit="10" fill="none"/></g></svg>