<svg width="2637" height="1805" xmlns="http://www.w3.org/2000/svg" xmlns:xlink="http://www.w3.org/1999/xlink" xml:space="preserve" overflow="hidden"><defs><clipPath id="clip0"><rect x="2034" y="25" width="2637" height="1805"/></clipPath></defs><g clip-path="url(#clip0)" transform="translate(-2034 -25)"><rect x="2035" y="26.0001" width="2634" height="1802" fill="#FFFFFF"/><g><path d="M2220.5 1310.54 4618.5 1310.54M2220.5 1170.54 4618.5 1170.54M2220.5 1031.53 4618.5 1031.53M2220.5 892.529 4618.5 892.529M2220.5 753.525 4618.5 753.525M2220.5 613.52 4618.5 613.52M2220.5 474.516 4618.5 474.516M2220.5 335.511 4618.5 335.511M2220.5 195.5 4618.5 195.5" stroke="#D9D9D9" stroke-width="3.4375" stroke-linejoin="round" stroke-miterlimit="10" fill="none"/></g><g><path d="M0 0 0.000360892 1254" stroke="#7F7F7F" stroke-width="3.4375" stroke-linejoin="round" stroke-miterlimit="10" fill="none" fill-rule="evenodd" transform="matrix(1 0 0 -1 2220.5 1449.5)"/></g><g><path d="M2220.57 1449.5 2230.5 1449.5M2220.57 1421.55 2230.5 1421.55M2220.57 1393.55 2230.5 1393.55M2220.57 1365.55 2230.5 1365.55M2220.57 1338.54 2230.5 1338.54M2220.57 1310.54 2230.5 1310.54M2220.57 1282.54 2230.5 1282.54M2220.57 1254.54 2230.5 1254.54M2220.57 1226.54 2230.5 1226.54M2220.57 1198.54 2230.5 1198.54M2220.57 1170.54 2230.5 1170.54M2220.57 1143.54 2230.5 1143.54M2220.57 1115.54 2230.5 1115.54M2220.57 1087.54 2230.5 1087.54M2220.57 1059.53 2230.5 1059.53M2220.57 1031.53 2230.5 1031.53M2220.57 1003.53 2230.5 1003.53M2220.57 975.532 2230.5 975.532M2220.57 948.531 2230.5 948.531M2220.57 920.53 2230.5 920.53M2220.57 892.529 2230.5 892.529M2220.57 864.529 2230.5 864.529M2220.57 836.528 2230.5 836.528M2220.57 808.527 2230.5 808.527M2220.57 780.526 2230.5 780.526M2220.57 753.525 2230.5 753.525M2220.57 725.524 2230.5 725.524M2220.57 697.523 2230.5 697.523M2220.57 669.522 2230.5 669.522M2220.57 641.521 2230.5 641.521M2220.57 613.52 2230.5 613.52M2220.57 585.519 2230.5 585.519M2220.57 558.518 2230.5 558.518M2220.57 530.518 2230.5 530.518M2220.57 502.517 2230.5 502.517M2220.57 474.516 2230.5 474.516M2220.57 446.515 2230.5 446.515M2220.57 418.514 2230.5 418.514M2220.57 390.513 2230.5 390.513M2220.57 363.512 2230.5 363.512M2220.57 335.511 2230.5 335.511M2220.57 307.51 2230.5 307.51M2220.57 279.509 2230.5 279.509M2220.57 251.508 2230.5 251.508M2220.57 223.508 2230.5 223.508M2220.57 195.5 2230.5 195.5M2208.5 1449.5 2220.57 1449.5M2208.5 1310.54 2220.57 1310.54M2208.5 1170.54 2220.57 1170.54M2208.5 1031.53 2220.57 1031.53M2208.5 892.529 2220.57 892.529M2208.5 753.525 2220.57 753.525M2208.5 613.52 2220.57 613.52M2208.5 474.516 2220.57 474.516M2208.5 335.511 2220.57 335.511M2208.5 195.5 2220.57 195.5" stroke="#7F7F7F" stroke-width="3.4375" stroke-linejoin="round" stroke-miterlimit="10" fill="none"/></g><g><path d="M2220.5 1449.5 4618.5 1449.5" stroke="#D9D9D9" stroke-width="3.4375" stroke-linejoin="round" stroke-miterlimit="10" fill="none" fill-rule="evenodd"/></g><g><path d="M2354.58 1439.5 2354.58 1449.55M2620.59 1439.5 2620.59 1449.55M2886.59 1439.5 2886.59 1449.55M3153.6 1439.5 3153.6 1449.55M3419.61 1439.5 3419.61 1449.55M3685.62 1439.5 3685.62 1449.55M3952.63 1439.5 3952.63 1449.55M4218.64 1439.5 4218.64 1449.55M4484.65 1439.5 4484.65 1449.55M4618.5 1439.5 4618.5 1449.55M2220.5 1449.55 2220.5 1462.5M2487.58 1449.55 2487.58 1462.5M2753.59 1449.55 2753.59 1462.5M3019.6 1449.55 3019.6 1462.5M3286.61 1449.55 3286.61 1462.5M3552.62 1449.55 3552.62 1462.5M3818.63 1449.55 3818.63 1462.5M4085.63 1449.55 4085.63 1462.5M4351.64 1449.55 4351.64 1462.5M4618.5 1449.55 4618.5 1462.5" stroke="#D9D9D9" stroke-width="3.4375" stroke-linejoin="round" stroke-miterlimit="10" fill="none"/></g><g><path d="M2354 1380 2620.09 1387.05 2887.09 1397.05 3153.1 1401.05 3419.11 1404.05 3686.12 1411.05 3952.13 1413.05 4218.14 1414.05 4485 1417" stroke="#747474" stroke-width="8.02083" stroke-linecap="round" stroke-linejoin="round" stroke-miterlimit="10" fill="none"/></g><g><path d="M2354.5 1268.54 2620.59 1240.5 2886.59 1295.54 3153.6 1323.54 3419.61 1328.54 3685.62 1327.54 3952.63 1348.54 4218.64 1351.5 4484.5 1349.54" stroke="#4EA72E" stroke-width="6.875" stroke-linecap="round" stroke-linejoin="round" stroke-miterlimit="10" fill="none"/></g><g><path d="M2354.5 1169.54 2620.59 1177.54 2886.59 1159.5 3153.6 1162.54 3419.61 1211.54 3685.62 1214.54 3952.63 1243.54 4218.64 1251.54 4484.5 1278.5" stroke="#A02B93" stroke-width="6.875" stroke-linecap="round" stroke-linejoin="round" stroke-miterlimit="10" fill="none"/></g><g><path d="M2354.5 1147.5 2620.59 907.53 2886.59 926.531 3153.6 916.53 3419.61 900.5 3685.62 909.53 3952.63 927.531 4218.64 908.53 4484.5 928.531" stroke="#E97132" stroke-width="6.875" stroke-linecap="round" stroke-linejoin="round" stroke-miterlimit="10" fill="none"/></g><g><path d="M2354.5 969.5 2620.59 653.522 2886.59 834.528 3153.6 788.526 3419.61 742.525 3685.62 734.524 3952.63 536.518 4218.64 576.519 4484.5 331.5" stroke="#FF5050" stroke-width="6.875" stroke-linecap="round" stroke-linejoin="round" stroke-miterlimit="10" fill="none"/></g><g><path d="M2354.5 937.5 2620.59 535.518 2886.59 667.522 3153.6 512.517 3419.61 421.5 3685.62 477.516 3952.63 514.517 4218.64 428.514 4484.5 444.515" stroke="#0F9ED5" stroke-width="6.875" stroke-linecap="round" stroke-linejoin="round" stroke-miterlimit="10" fill="none"/></g><g><path d="M2354.5 1388.5 2620.59 1399.55 2886.59 1399.55 3153.6 1403.55 3419.61 1403.55 3685.62 1404.55 3952.63 1405.5 4218.64 1404.55 4484.5 1403.55" stroke="#747474" stroke-width="6.875" stroke-linecap="round" stroke-linejoin="round" stroke-miterlimit="10" stroke-dasharray="20.625 27.5" fill="none"/></g><g><path d="M2354.5 1264.54 2620.59 1299.5 2886.59 1271.54 3153.6 1257.5 3419.61 1266.54 3685.62 1275.54 3952.63 1267.54 4218.64 1276.54 4484.5 1273.54" stroke="#4EA72E" stroke-width="6.875" stroke-linecap="round" stroke-linejoin="round" stroke-miterlimit="10" stroke-dasharray="20.625 27.5" fill="none"/></g><g><path d="M2354.5 1207.5 2620.59 1069.54 2886.59 1047.53 3153.6 1033.53 3419.61 1037.53 3685.62 1037.53 3952.63 1036.53 4218.64 1025.5 4484.5 1061.54" stroke="#A02B93" stroke-width="6.875" stroke-linecap="round" stroke-linejoin="round" stroke-miterlimit="10" stroke-dasharray="20.625 27.5" fill="none"/></g><g><path d="M2354.5 1078.54 2620.59 909.53 2886.59 1274.54 3153.6 1435.5 3419.61 362.5 3685.62 1007.53 3952.63 1245.54 4218.64 723.524 4484.5 1146.54" stroke="#E97132" stroke-width="6.875" stroke-linecap="round" stroke-linejoin="round" stroke-miterlimit="10" stroke-dasharray="20.625 27.5" fill="none"/></g><g><path d="M2354.5 1116.5 2620.59 812.527 2886.59 786.526 3153.6 840.528 3419.61 930.531 3685.62 692.523 3952.63 628.521 4218.64 626.521 4484.5 414.5" stroke="#FF5050" stroke-width="6.875" stroke-linecap="round" stroke-linejoin="round" stroke-miterlimit="10" stroke-dasharray="20.625 27.5" fill="none"/></g><g><path d="M2354.5 886.5 2620.59 662.522 2886.59 562.519 3153.6 544.5 3419.61 589.52 3685.62 558.518 3952.63 609.52 4218.64 550.518 4484.5 885.529" stroke="#0F9ED5" stroke-width="6.875" stroke-linecap="round" stroke-linejoin="round" stroke-miterlimit="10" stroke-dasharray="20.625 27.5" fill="none"/></g><g><text fill="#595959" font-family="Aptos Narrow,Aptos Narrow_MSFontService,sans-serif" font-weight="400" font-stretch="semi-condensed" font-size="41" transform="matrix(1 0 0 1 2161.98 1461)">0</text></g><g><text fill="#595959" font-family="Aptos Narrow,Aptos Narrow_MSFontService,sans-serif" font-weight="400" font-stretch="semi-condensed" font-size="41" transform="matrix(1 0 0 1 2161.98 1322)">1</text></g><g><text fill="#595959" font-family="Aptos Narrow,Aptos Narrow_MSFontService,sans-serif" font-weight="400" font-stretch="semi-condensed" font-size="41" transform="matrix(1 0 0 1 2161.98 1182)">2</text></g><g><text fill="#595959" font-family="Aptos Narrow,Aptos Narrow_MSFontService,sans-serif" font-weight="400" font-stretch="semi-condensed" font-size="41" transform="matrix(1 0 0 1 2161.98 1043)">3</text></g><g><text fill="#595959" font-family="Aptos Narrow,Aptos Narrow_MSFontService,sans-serif" font-weight="400" font-stretch="semi-condensed" font-size="41" transform="matrix(1 0 0 1 2161.98 904)">4</text></g><g><text fill="#595959" font-family="Aptos Narrow,Aptos Narrow_MSFontService,sans-serif" font-weight="400" font-stretch="semi-condensed" font-size="41" transform="matrix(1 0 0 1 2161.98 765)">5</text></g><g><text fill="#595959" font-family="Aptos Narrow,Aptos Narrow_MSFontService,sans-serif" font-weight="400" font-stretch="semi-condensed" font-size="41" transform="matrix(1 0 0 1 2161.98 625)">6</text></g><g><text fill="#595959" font-family="Aptos Narrow,Aptos Narrow_MSFontService,sans-serif" font-weight="400" font-stretch="semi-condensed" font-size="41" transform="matrix(1 0 0 1 2161.98 486)">7</text></g><g><text fill="#595959" font-family="Aptos Narrow,Aptos Narrow_MSFontService,sans-serif" font-weight="400" font-stretch="semi-condensed" font-size="41" transform="matrix(1 0 0 1 2161.98 347)">8</text></g><g><text fill="#595959" font-family="Aptos Narrow,Aptos Narrow_MSFontService,sans-serif" font-weight="400" font-stretch="semi-condensed" font-size="41" transform="matrix(1 0 0 1 2161.98 207)">9</text></g><g><text fill="#595959" font-family="Aptos Narrow,Aptos Narrow_MSFontService,sans-serif" font-weight="400" font-stretch="semi-condensed" font-size="41" transform="matrix(1 0 0 1 2333.24 1514)">20</text></g><g><text fill="#595959" font-family="Aptos Narrow,Aptos Narrow_MSFontService,sans-serif" font-weight="400" font-stretch="semi-condensed" font-size="41" transform="matrix(1 0 0 1 2599.59 1514)">40</text></g><g><text fill="#595959" font-family="Aptos Narrow,Aptos Narrow_MSFontService,sans-serif" font-weight="400" font-stretch="semi-condensed" font-size="41" transform="matrix(1 0 0 1 2865.94 1514)">60</text></g><g><text fill="#595959" font-family="Aptos Narrow,Aptos Narrow_MSFontService,sans-serif" font-weight="400" font-stretch="semi-condensed" font-size="41" transform="matrix(1 0 0 1 3132.29 1514)">80</text></g><g><text fill="#595959" font-family="Aptos Narrow,Aptos Narrow_MSFontService,sans-serif" font-weight="400" font-stretch="semi-condensed" font-size="41" transform="matrix(1 0 0 1 3388.19 1514)">100</text></g><g><text fill="#595959" font-family="Aptos Narrow,Aptos Narrow_MSFontService,sans-serif" font-weight="400" font-stretch="semi-condensed" font-size="41" transform="matrix(1 0 0 1 3654.54 1514)">120</text></g><g><text fill="#595959" font-family="Aptos Narrow,Aptos Narrow_MSFontService,sans-serif" font-weight="400" font-stretch="semi-condensed" font-size="41" transform="matrix(1 0 0 1 3920.89 1514)">140</text></g><g><text fill="#595959" font-family="Aptos Narrow,Aptos Narrow_MSFontService,sans-serif" font-weight="400" font-stretch="semi-condensed" font-size="41" transform="matrix(1 0 0 1 4187.24 1514)">160</text></g><g><text fill="#595959" font-family="Aptos Narrow,Aptos Narrow_MSFontService,sans-serif" font-weight="400" font-stretch="semi-condensed" font-size="41" transform="matrix(1 0 0 1 4453.59 1514)">180</text></g><g><text fill="#595959" font-family="Aptos Narrow,Aptos Narrow_MSFontService,sans-serif" font-weight="400" font-stretch="semi-condensed" font-size="46" transform="matrix(6.12323e-17 -1 1 6.12323e-17 2135.28 1090)">Tiempo de procesamiento (S)</text></g><g><text fill="#595959" font-family="Aptos Narrow,Aptos Narrow_MSFontService,sans-serif" font-weight="400" font-stretch="semi-condensed" font-size="46" transform="matrix(1 0 0 1 3055.4 1582)">Tiempo desde el inicio de la iteración (s)</text></g><g><text fill="#595959" font-family="Aptos Narrow,Aptos Narrow_MSFontService,sans-serif" font-weight="400" font-stretch="semi-condensed" font-size="64" transform="matrix(1 0 0 1 2692.18 120)">Tiempo medio de procesamiento con respuesta 200</text></g><g><path d="M2611 1691 2726 1691" stroke="#747474" stroke-width="8.02083" stroke-linecap="round" stroke-linejoin="round" stroke-miterlimit="10" fill="none" fill-rule="evenodd"/></g><g><text fill="#595959" font-family="Aptos Narrow,Aptos Narrow_MSFontService,sans-serif" font-weight="400" font-stretch="semi-condensed" font-size="41" transform="matrix(1 0 0 1 2738.99 1703)">JPG-0</text></g><g><path d="M2863.5 1691.5 2979.5 1691.5" stroke="#4EA72E" stroke-width="6.875" stroke-linecap="round" stroke-linejoin="round" stroke-miterlimit="10" fill="none" fill-rule="evenodd"/></g><g><text fill="#595959" font-family="Aptos Narrow,Aptos Narrow_MSFontService,sans-serif" font-weight="400" font-stretch="semi-condensed" font-size="41" transform="matrix(1 0 0 1 2991.95 1703)">JPG-1</text></g><g><path d="M3116.5 1691.5 3232.5 1691.5" stroke="#A02B93" stroke-width="6.875" stroke-linecap="round" stroke-linejoin="round" stroke-miterlimit="10" fill="none" fill-rule="evenodd"/></g><g><text fill="#595959" font-family="Aptos Narrow,Aptos Narrow_MSFontService,sans-serif" font-weight="400" font-stretch="semi-condensed" font-size="41" transform="matrix(1 0 0 1 3244.9 1703)">JPG-2</text></g><g><path d="M3369.5 1691.5 3485.5 1691.5" stroke="#E97132" stroke-width="6.875" stroke-linecap="round" stroke-linejoin="round" stroke-miterlimit="10" fill="none" fill-rule="evenodd"/></g><g><text fill="#595959" font-family="Aptos Narrow,Aptos Narrow_MSFontService,sans-serif" font-weight="400" font-stretch="semi-condensed" font-size="41" transform="matrix(1 0 0 1 3497.86 1703)">JPG-3</text></g><g><path d="M3622.5 1691.5 3738.5 1691.5" stroke="#FF5050" stroke-width="6.875" stroke-linecap="round" stroke-linejoin="round" stroke-miterlimit="10" fill="none" fill-rule="evenodd"/></g><g><text fill="#595959" font-family="Aptos Narrow,Aptos Narrow_MSFontService,sans-serif" font-weight="400" font-stretch="semi-condensed" font-size="41" transform="matrix(1 0 0 1 3750.81 1703)">JPG-4</text></g><g><path d="M3875.5 1691.5 3991.5 1691.5" stroke="#0F9ED5" stroke-width="6.875" stroke-linecap="round" stroke-linejoin="round" stroke-miterlimit="10" fill="none" fill-rule="evenodd"/></g><g><text fill="#595959" font-family="Aptos Narrow,Aptos Narrow_MSFontService,sans-serif" font-weight="400" font-stretch="semi-condensed" font-size="41" transform="matrix(1 0 0 1 4003.77 1703)">JPG-5</text></g><g><path d="M2610.5 1768.5 2726.5 1768.5" stroke="#747474" stroke-width="6.875" stroke-linecap="round" stroke-linejoin="round" stroke-miterlimit="10" stroke-dasharray="20.625 27.5" fill="none" fill-rule="evenodd"/></g><g><text fill="#595959" font-family="Aptos Narrow,Aptos Narrow_MSFontService,sans-serif" font-weight="400" font-stretch="semi-condensed" font-size="41" transform="matrix(1 0 0 1 2738.99 1780)">PNG-0</text></g><g><path d="M2863.5 1768.5 2979.5 1768.5" stroke="#4EA72E" stroke-width="6.875" stroke-linecap="round" stroke-linejoin="round" stroke-miterlimit="10" stroke-dasharray="20.625 27.5" fill="none" fill-rule="evenodd"/></g><g><text fill="#595959" font-family="Aptos Narrow,Aptos Narrow_MSFontService,sans-serif" font-weight="400" font-stretch="semi-condensed" font-size="41" transform="matrix(1 0 0 1 2991.95 1780)">PNG-1</text></g><g><path d="M3116.5 1768.5 3232.5 1768.5" stroke="#A02B93" stroke-width="6.875" stroke-linecap="round" stroke-linejoin="round" stroke-miterlimit="10" stroke-dasharray="20.625 27.5" fill="none" fill-rule="evenodd"/></g><g><text fill="#595959" font-family="Aptos Narrow,Aptos Narrow_MSFontService,sans-serif" font-weight="400" font-stretch="semi-condensed" font-size="41" transform="matrix(1 0 0 1 3244.9 1780)">PNG-2</text></g><g><path d="M3369.5 1768.5 3485.5 1768.5" stroke="#E97132" stroke-width="6.875" stroke-linecap="round" stroke-linejoin="round" stroke-miterlimit="10" stroke-dasharray="20.625 27.5" fill="none" fill-rule="evenodd"/></g><g><text fill="#595959" font-family="Aptos Narrow,Aptos Narrow_MSFontService,sans-serif" font-weight="400" font-stretch="semi-condensed" font-size="41" transform="matrix(1 0 0 1 3497.86 1780)">PNG-3</text></g><g><path d="M3622.5 1768.5 3738.5 1768.5" stroke="#FF5050" stroke-width="6.875" stroke-linecap="round" stroke-linejoin="round" stroke-miterlimit="10" stroke-dasharray="20.625 27.5" fill="none" fill-rule="evenodd"/></g><g><text fill="#595959" font-family="Aptos Narrow,Aptos Narrow_MSFontService,sans-serif" font-weight="400" font-stretch="semi-condensed" font-size="41" transform="matrix(1 0 0 1 3750.81 1780)">PNG-4</text></g><g><path d="M3875.5 1768.5 3991.5 1768.5" stroke="#0F9ED5" stroke-width="6.875" stroke-linecap="round" stroke-linejoin="round" stroke-miterlimit="10" stroke-dasharray="20.625 27.5" fill="none" fill-rule="evenodd"/></g><g><text fill="#595959" font-family="Aptos Narrow,Aptos Narrow_MSFontService,sans-serif" font-weight="400" font-stretch="semi-condensed" font-size="41" transform="matrix(1 0 0 1 4003.77 1780)">PNG-5</text></g><rect x="2035.5" y="26.5" width="2634" height="1802" stroke="#D9D9D9" stroke-width="3.4375" stroke-linejoin="round" stroke-miterlimit="10" fill="none"/></g></svg>